<svg width="104" height="100" viewBox="0 0 104 100" fill="none" xmlns="http://www.w3.org/2000/svg">
<path d="M102.275 51.298L102.275 38.4538L91.442 38.4538L91.442 17.0585L68.8612 17.0585L68.8612 0.974608L35.4601 0.974606L35.4601 17.2622L13.4796 17.2621L13.4796 38.4538L2.27537 38.4538L2.27537 49.766C2.27536 76.1925 24.4057 99.5253 52.1602 99.5253C79.629 99.5253 102.275 77.7488 102.275 51.298Z" fill="#E61E2A"/>
<mask id="path-2-inside-1_1254_582" fill="white">
<ellipse cx="3.5" cy="3.5" rx="3.5" ry="3.5" transform="matrix(-1 -8.74228e-08 -8.74228e-08 1 37.2754 46.9746)"/>
</mask>
<ellipse cx="3.5" cy="3.5" rx="3.5" ry="3.5" transform="matrix(-1 -8.74228e-08 -8.74228e-08 1 37.2754 46.9746)" fill="#222160"/>
<path d="M34.2754 50.4746C34.2754 50.1985 34.0515 49.9746 33.7754 49.9746L33.7754 57.9746C29.6332 57.9746 26.2754 54.6167 26.2754 50.4746L34.2754 50.4746ZM33.7754 49.9746C33.4992 49.9746 33.2754 50.1985 33.2754 50.4746L41.2754 50.4746C41.2754 54.6167 37.9175 57.9746 33.7754 57.9746L33.7754 49.9746ZM33.2754 50.4746C33.2754 50.7508 33.4992 50.9746 33.7754 50.9746L33.7754 42.9746C37.9175 42.9746 41.2754 46.3325 41.2754 50.4746L33.2754 50.4746ZM33.7754 50.9746C34.0515 50.9746 34.2754 50.7508 34.2754 50.4746L26.2754 50.4746C26.2754 46.3325 29.6332 42.9746 33.7754 42.9746L33.7754 50.9746Z" fill="#222160" mask="url(#path-2-inside-1_1254_582)"/>
<mask id="path-4-inside-2_1254_582" fill="white">
<ellipse cx="3.5" cy="3.5" rx="3.5" ry="3.5" transform="matrix(-1 -8.74228e-08 -8.74228e-08 1 71.2754 46.9746)"/>
</mask>
<ellipse cx="3.5" cy="3.5" rx="3.5" ry="3.5" transform="matrix(-1 -8.74228e-08 -8.74228e-08 1 71.2754 46.9746)" fill="#222160"/>
<path d="M68.2754 50.4746C68.2754 50.1985 68.0515 49.9746 67.7754 49.9746L67.7754 57.9746C63.6332 57.9746 60.2754 54.6167 60.2754 50.4746L68.2754 50.4746ZM67.7754 49.9746C67.4992 49.9746 67.2754 50.1985 67.2754 50.4746L75.2754 50.4746C75.2754 54.6167 71.9175 57.9746 67.7754 57.9746L67.7754 49.9746ZM67.2754 50.4746C67.2754 50.7508 67.4992 50.9746 67.7754 50.9746L67.7754 42.9746C71.9175 42.9746 75.2754 46.3325 75.2754 50.4746L67.2754 50.4746ZM67.7754 50.9746C68.0515 50.9746 68.2754 50.7508 68.2754 50.4746L60.2754 50.4746C60.2754 46.3325 63.6332 42.9746 67.7754 42.9746L67.7754 50.9746Z" fill="#222160" mask="url(#path-4-inside-2_1254_582)"/>
<path d="M59.2754 71.7246C59.2754 76.1429 55.6936 79.7246 51.2754 79.7246C46.8571 79.7246 43.2754 76.1429 43.2754 71.7246C43.2754 69.6031 44.083 68.3734 45.2997 67.5769C46.6462 66.6954 48.6974 66.2246 51.2754 66.2246C53.8533 66.2246 55.9045 66.6954 57.251 67.5769C58.4677 68.3734 59.2754 69.6031 59.2754 71.7246Z" fill="#222160" stroke="#222160" stroke-width="4" stroke-linecap="round"/>
<path d="M50.2754 81.2246C50.7754 83.2246 50.2754 87.2246 44.2754 87.2246" stroke="#222160" stroke-width="4" stroke-linecap="round"/>
<path d="M52.4219 81.2246C51.9219 83.2246 52.4219 87.2246 58.4219 87.2246" stroke="#222160" stroke-width="4" stroke-linecap="round"/>
<path d="M2.35148 38.9536C1.85796 52.7106 3.53595 80.2246 14.1961 80.2246C24.8563 80.2246 25.8763 49.5579 25.0537 34.2246" stroke="#222160" stroke-width="4" stroke-linecap="round"/>
<path d="M101.199 38.9536C101.693 52.7106 100.015 80.2246 89.3546 80.2246C78.6944 80.2246 77.6745 49.5579 78.497 34.2246" stroke="#222160" stroke-width="4" stroke-linecap="round"/>
</svg>
