<svg width="100" height="101" viewBox="0 0 100 101" fill="none" xmlns="http://www.w3.org/2000/svg">
<path d="M48.952 100.25L61.7962 100.25L61.7962 89.4166L83.1915 89.4166L83.1915 66.8358L99.2754 66.8358L99.2754 33.4348L82.9878 33.4348L82.9878 11.4542L61.7962 11.4542L61.7962 0.249997L50.4839 0.249996C24.0575 0.249993 0.724639 22.3803 0.724637 50.1348C0.724634 77.6037 22.5011 100.25 48.952 100.25Z" fill="#E61E2A"/>
<path d="M11 49.75C11 45.6079 14.3579 42.25 18.5 42.25C22.6422 42.25 26 45.6079 26 49.75" stroke="#222160" stroke-width="4" stroke-linecap="round"/>
<path d="M38 50.0254C38 45.8833 41.3579 42.5254 45.5 42.5254C49.6422 42.5254 53 45.8833 53 50.0254" stroke="#222160" stroke-width="4" stroke-linecap="round"/>
<circle cx="31.5" cy="65.75" r="5.5" transform="rotate(-180 31.5 65.75)" fill="#222160" stroke="#222160" stroke-width="4"/>
</svg>
