<svg width="101" height="99" viewBox="0 0 101 99" fill="none" xmlns="http://www.w3.org/2000/svg">
<path d="M0.275367 48.6766L0.275365 61.5208L11.1088 61.5208L11.1088 82.9161L33.6895 82.9161L33.6895 99L67.0906 99L67.0906 82.7125L89.0711 82.7125L89.0711 61.5208L100.275 61.5208L100.275 50.2086C100.275 23.7821 78.145 0.449282 50.3906 0.449279C22.9217 0.449275 0.27537 22.2258 0.275367 48.6766Z" fill="#E61E2A"/>
<circle cx="64.5" cy="59.2246" r="5.5" transform="rotate(-180 64.5 59.2246)" fill="#222160" stroke="#222160" stroke-width="4"/>
<circle cx="35.0507" cy="59.2246" r="5.5" transform="rotate(-180 35.0507 59.2246)" fill="#222160" stroke="#222160" stroke-width="4"/>
<line x1="40.5" y1="81.7246" x2="40.5" y2="98.7246" stroke="#222160" stroke-width="5"/>
<line x1="50.5" y1="81.7246" x2="50.5" y2="98.7246" stroke="#222160" stroke-width="5"/>
<line x1="60.5" y1="81.7246" x2="60.5" y2="98.7246" stroke="#222160" stroke-width="5"/>
</svg>
