<svg width="101" height="102" viewBox="0 0 101 102" fill="none" xmlns="http://www.w3.org/2000/svg">
<g clip-path="url(#clip0_1303_6060)">
<path d="M7.93708 24.2914L1.51497 35.4149L10.897 40.8316L0.199324 59.3605L19.7548 70.6508L11.7129 84.5799L40.6391 101.28L48.7828 87.175L67.8185 98.1652L78.4144 79.8127L88.1175 85.4149L93.7736 75.6182C106.987 52.7322 99.4878 21.4602 75.4518 7.58295C51.663 -6.15148 21.1625 1.38437 7.93708 24.2914" fill="#E61E2A"/>
<path d="M7.93708 24.2914L1.51497 35.4149L10.897 40.8316L0.199324 59.3605L19.7548 70.6508L11.7129 84.5799L40.6391 101.28L48.7828 87.175L67.8185 98.1652L78.4144 79.8127L88.1175 85.4149L93.7736 75.6182C106.987 52.7322 99.4878 21.4602 75.4518 7.58295C51.663 -6.15148 21.1625 1.38437 7.93708 24.2914" fill="#E61E2A"/>
<mask id="mask0_1303_6060" style="mask-type:alpha" maskUnits="userSpaceOnUse" x="1" y="0" width="100" height="100">
<path d="M92.6068 75.6615C78.5345 98.9544 48.2439 106.429 24.951 92.3569C1.65803 78.2845 -5.81675 47.994 8.25559 24.701C22.3279 1.40807 52.6185 -6.06672 75.9115 8.00562C100.773 23.0254 106.679 52.3685 92.6068 75.6615Z" fill="#D9D9D9"/>
</mask>
<g mask="url(#mask0_1303_6060)">
<path d="M79.376 3.67283L30.5294 84.5253M1.36323 25.4731L100.65 85.457" stroke="#222160" stroke-width="4" stroke-linecap="round"/>
<path d="M109.842 51.8711C98.1155 48.0749 72.0941 44.7338 61.8205 61.7389C57.4931 68.9019 56.9259 77.5815 58.223 86.0253" stroke="#222160" stroke-width="4" stroke-linecap="round"/>
<path d="M19.1141 -2.94187C27.9298 5.67242 42.9927 27.1523 32.7192 44.1574C27.7517 52.3796 18.7102 57.1457 9.27533 59.7608" stroke="#222160" stroke-width="4" stroke-linecap="round"/>
</g>
</g>
<defs>
<clipPath id="clip0_1303_6060">
<rect width="100" height="101" fill="white" transform="translate(0.77536 0.525391)"/>
</clipPath>
</defs>
</svg>
