<svg width="104" height="110" viewBox="0 0 104 110" fill="none" xmlns="http://www.w3.org/2000/svg">
<path d="M101.775 51.0988L101.775 38.2546L90.942 38.2546L90.942 16.8593L68.3612 16.8593L68.3612 0.775389L34.9601 0.775388L34.9601 17.0629L12.9796 17.0629L12.9796 38.2546L1.77537 38.2546L1.77537 49.5668C1.77536 75.9933 23.9057 99.3261 51.6602 99.3261C79.129 99.3261 101.775 77.5496 101.775 51.0988Z" fill="#E61E2A"/>
<path d="M2.77536 40.2754L52.2754 60.7754L100.775 40.2754" stroke="#222160" stroke-width="4" stroke-linecap="round"/>
<mask id="mask0_1255_528" style="mask-type:alpha" maskUnits="userSpaceOnUse" x="21" y="28" width="62" height="28">
<path d="M23.7754 42.2754C23.7754 35.9241 28.9241 30.7754 35.2754 30.7754C41.6266 30.7754 46.7754 35.9241 46.7754 42.2754C46.7754 48.6267 41.6266 53.7754 35.2754 53.7754C28.9241 53.7754 23.7754 48.6267 23.7754 42.2754Z" stroke="#222160" stroke-width="4" stroke-linecap="round"/>
<mask id="path-4-inside-1_1255_528" fill="white">
<ellipse cx="3.5" cy="3.5" rx="3.5" ry="3.5" transform="matrix(-1 -8.74228e-08 -8.74228e-08 1 38.7754 42.7754)"/>
</mask>
<ellipse cx="3.5" cy="3.5" rx="3.5" ry="3.5" transform="matrix(-1 -8.74228e-08 -8.74228e-08 1 38.7754 42.7754)" fill="#222160"/>
<path d="M35.7754 46.2754C35.7754 45.9992 35.5515 45.7754 35.2754 45.7754L35.2754 53.7754C31.1332 53.7754 27.7754 50.4175 27.7754 46.2754L35.7754 46.2754ZM35.2754 45.7754C34.9992 45.7754 34.7754 45.9992 34.7754 46.2754L42.7754 46.2754C42.7754 50.4175 39.4175 53.7754 35.2754 53.7754L35.2754 45.7754ZM34.7754 46.2754C34.7754 46.5515 34.9992 46.7754 35.2754 46.7754L35.2754 38.7754C39.4175 38.7754 42.7754 42.1333 42.7754 46.2754L34.7754 46.2754ZM35.2754 46.7754C35.5515 46.7754 35.7754 46.5515 35.7754 46.2754L27.7754 46.2754C27.7754 42.1333 31.1332 38.7754 35.2754 38.7754L35.2754 46.7754Z" fill="#222160" mask="url(#path-4-inside-1_1255_528)"/>
<mask id="path-6-inside-2_1255_528" fill="white">
<ellipse cx="3.5" cy="3.5" rx="3.5" ry="3.5" transform="matrix(-1 -8.74228e-08 -8.74228e-08 1 71.7754 42.7754)"/>
</mask>
<ellipse cx="3.5" cy="3.5" rx="3.5" ry="3.5" transform="matrix(-1 -8.74228e-08 -8.74228e-08 1 71.7754 42.7754)" fill="#222160"/>
<path d="M68.7754 46.2754C68.7754 45.9992 68.5515 45.7754 68.2754 45.7754L68.2754 53.7754C64.1332 53.7754 60.7754 50.4175 60.7754 46.2754L68.7754 46.2754ZM68.2754 45.7754C67.9992 45.7754 67.7754 45.9992 67.7754 46.2754L75.7754 46.2754C75.7754 50.4175 72.4175 53.7754 68.2754 53.7754L68.2754 45.7754ZM67.7754 46.2754C67.7754 46.5515 67.9992 46.7754 68.2754 46.7754L68.2754 38.7754C72.4175 38.7754 75.7754 42.1333 75.7754 46.2754L67.7754 46.2754ZM68.2754 46.7754C68.5515 46.7754 68.7754 46.5515 68.7754 46.2754L60.7754 46.2754C60.7754 42.1333 64.1332 38.7754 68.2754 38.7754L68.2754 46.7754Z" fill="#222160" mask="url(#path-6-inside-2_1255_528)"/>
<path d="M57.7754 42.2754C57.7754 35.9241 62.9241 30.7754 69.2754 30.7754C75.6266 30.7754 80.7754 35.9241 80.7754 42.2754C80.7754 48.6267 75.6266 53.7754 69.2754 53.7754C62.9241 53.7754 57.7754 48.6267 57.7754 42.2754Z" stroke="#222160" stroke-width="4" stroke-linecap="round"/>
</mask>
<g mask="url(#mask0_1255_528)">
<path d="M52.2754 19.2754L19.2754 23.7754L15.2754 45.2754L53.7754 60.2754L86.2754 46.7754L82.2754 23.7754L52.2754 19.2754Z" fill="#222160"/>
</g>
<line x1="48.7754" y1="41.7754" x2="55.7754" y2="41.7754" stroke="#222160" stroke-width="4" stroke-linecap="round"/>
<path d="M52.7754 60.7754V107.275" stroke="#222160" stroke-width="4" stroke-linecap="round"/>
<path d="M2.77536 65.2754H10.5254C12.0441 65.2754 13.2754 66.5066 13.2754 68.0254V68.0254C13.2754 69.5442 12.0441 70.7754 10.5254 70.7754H3.77536" stroke="#222160" stroke-width="4" stroke-linecap="round"/>
<path d="M101.275 65.2754H93.5254C92.0066 65.2754 90.7754 66.5066 90.7754 68.0254V68.0254C90.7754 69.5442 92.0066 70.7754 93.5254 70.7754H100.275" stroke="#222160" stroke-width="4" stroke-linecap="round"/>
<path d="M2.77536 71.7754H10.5254C12.0441 71.7754 13.2754 73.0066 13.2754 74.5254V74.5254C13.2754 76.0442 12.0441 77.2754 10.5254 77.2754H3.77536" stroke="#222160" stroke-width="4" stroke-linecap="round"/>
<path d="M101.275 71.7754H93.5254C92.0066 71.7754 90.7754 73.0066 90.7754 74.5254V74.5254C90.7754 76.0442 92.0066 77.2754 93.5254 77.2754H100.275" stroke="#222160" stroke-width="4" stroke-linecap="round"/>
<path d="M2.77536 77.7754H10.5254C12.0441 77.7754 13.2754 79.0066 13.2754 80.5254V80.5254C13.2754 82.0442 12.0441 83.2754 10.5254 83.2754H3.77536" stroke="#222160" stroke-width="4" stroke-linecap="round"/>
<path d="M101.275 77.7754H93.5254C92.0066 77.7754 90.7754 79.0066 90.7754 80.5254V80.5254C90.7754 82.0442 92.0066 83.2754 93.5254 83.2754H100.275" stroke="#222160" stroke-width="4" stroke-linecap="round"/>
</svg>
