<svg width="117" height="106" viewBox="0 0 117 106" fill="none" xmlns="http://www.w3.org/2000/svg">
<path d="M7.27537 55.452L7.27537 68.2962L18.1088 68.2962L18.1088 89.6915L40.6895 89.6915L40.6895 105.775L74.0906 105.775L74.0906 89.4879L96.0711 89.4879L96.0711 68.2962L107.275 68.2962L107.275 56.984C107.275 30.5575 85.145 7.22467 57.3906 7.22467C29.9217 7.22467 7.27537 29.0012 7.27537 55.452Z" fill="#E61E2A"/>
<path d="M35.2754 65.7246C35.2754 61.5825 38.6332 58.2246 42.7754 58.2246C46.9175 58.2246 50.2754 61.5825 50.2754 65.7246" stroke="#222160" stroke-width="4" stroke-linecap="round"/>
<path d="M62.2754 66C62.2754 61.8579 65.6332 58.5 69.7754 58.5C73.9175 58.5 77.2754 61.8579 77.2754 66" stroke="#222160" stroke-width="4" stroke-linecap="round"/>
<path d="M17.2754 30.7246V2.72461L44.2754 29.7246" stroke="#222160" stroke-width="4" stroke-linecap="round" stroke-linejoin="round"/>
<path d="M95.2754 30.7246V2.72461L68.2754 29.7246" stroke="#222160" stroke-width="4" stroke-linecap="round" stroke-linejoin="round"/>
<path d="M57.7754 82.7246C55.4434 82.7246 53.4504 81.2733 52.6503 79.2246L62.9004 79.2246C62.1004 81.2733 60.1073 82.7246 57.7754 82.7246Z" stroke="#222160" stroke-width="4"/>
<line x1="2.27536" y1="79.2246" x2="44.2754" y2="79.2246" stroke="#222160" stroke-width="4" stroke-linecap="round"/>
<line x1="72.2754" y1="79.2246" x2="114.275" y2="79.2246" stroke="#222160" stroke-width="4" stroke-linecap="round"/>
<line x1="72.2754" y1="88.2246" x2="114.275" y2="88.2246" stroke="#222160" stroke-width="4" stroke-linecap="round"/>
<line x1="2.27536" y1="88.2246" x2="44.2754" y2="88.2246" stroke="#222160" stroke-width="4" stroke-linecap="round"/>
<line x1="2.27536" y1="88.2246" x2="44.2754" y2="88.2246" stroke="#222160" stroke-width="4" stroke-linecap="round"/>
<path d="M57.7754 84.2246C58.442 88.7246 56.6754 97.7246 44.2754 97.7246" stroke="#222160" stroke-width="4" stroke-linecap="round" stroke-linejoin="round"/>
<path d="M57.3963 84.2246C56.7297 88.7246 58.4963 97.7246 70.8963 97.7246" stroke="#222160" stroke-width="4" stroke-linecap="round" stroke-linejoin="round"/>
</svg>
