<svg width="47" height="34" viewBox="0 0 47 34" fill="none" xmlns="http://www.w3.org/2000/svg">
<path d="M19.2246 9.75C19.2246 10.8546 18.3292 11.75 17.2246 11.75C16.12 11.75 15.2246 10.8546 15.2246 9.75C15.2246 6.71243 12.7622 4.25 9.72461 4.25C6.68704 4.25 4.22461 6.71243 4.22461 9.75C4.22461 10.8546 3.32918 11.75 2.22461 11.75C1.12004 11.75 0.224609 10.8546 0.22461 9.75C0.22461 4.50329 4.47791 0.249999 9.72461 0.249999C14.9713 0.25 19.2246 4.50329 19.2246 9.75Z" fill="#222160"/>
<path d="M46.2246 10.0254C46.2246 11.13 45.3292 12.0254 44.2246 12.0254C43.12 12.0254 42.2246 11.13 42.2246 10.0254C42.2246 6.98782 39.7622 4.52539 36.7246 4.52539C33.687 4.52539 31.2246 6.98782 31.2246 10.0254C31.2246 11.13 30.3292 12.0254 29.2246 12.0254C28.12 12.0254 27.2246 11.13 27.2246 10.0254C27.2246 4.77868 31.4779 0.525389 36.7246 0.52539C41.9713 0.52539 46.2246 4.77869 46.2246 10.0254Z" fill="#222160"/>
<path d="M15.2246 25.75C15.2246 21.6079 18.5825 18.25 22.7246 18.25C26.8667 18.25 30.2246 21.6079 30.2246 25.75C30.2246 29.8921 26.8667 33.25 22.7246 33.25C18.5825 33.25 15.2246 29.8921 15.2246 25.75Z" fill="#222160"/>
<path d="M19.2246 25.75C19.2246 27.683 20.7916 29.25 22.7246 29.25C24.6576 29.25 26.2246 27.683 26.2246 25.75C26.2246 23.817 24.6576 22.25 22.7246 22.25L22.7246 18.25C26.8667 18.25 30.2246 21.6079 30.2246 25.75C30.2246 29.8921 26.8667 33.25 22.7246 33.25C18.5825 33.25 15.2246 29.8921 15.2246 25.75C15.2246 21.6079 18.5825 18.25 22.7246 18.25L22.7246 22.25C20.7916 22.25 19.2246 23.817 19.2246 25.75Z" fill="#222160"/>
</svg>
