<svg width="47" height="30" viewBox="0 0 47 30" fill="none" xmlns="http://www.w3.org/2000/svg">
<path d="M19.7754 9.5C19.7754 10.6046 18.88 11.5 17.7754 11.5C16.6708 11.5 15.7754 10.6046 15.7754 9.5C15.7754 6.46243 13.313 4 10.2754 4C7.23783 4 4.77539 6.46243 4.77539 9.5C4.77539 10.6046 3.87996 11.5 2.77539 11.5C1.67082 11.5 0.775391 10.6046 0.775391 9.5C0.775391 4.25329 5.02869 -1.2892e-06 10.2754 -8.30516e-07C15.5221 -3.71835e-07 19.7754 4.25329 19.7754 9.5Z" fill="#222160"/>
<path d="M14.7754 20C14.7754 18.8954 15.6708 18 16.7754 18C17.88 18 18.7754 18.8954 18.7754 20C18.7754 23.0376 21.2378 25.5 24.2754 25.5C27.313 25.5 29.7754 23.0376 29.7754 20C29.7754 18.8954 30.6708 18 31.7754 18C32.88 18 33.7754 18.8954 33.7754 20C33.7754 25.2467 29.5221 29.5 24.2754 29.5C19.0287 29.5 14.7754 25.2467 14.7754 20Z" fill="#222160"/>
<path d="M46.7754 9.77539C46.7754 10.88 45.88 11.7754 44.7754 11.7754C43.6708 11.7754 42.7754 10.88 42.7754 9.77539C42.7754 6.73782 40.313 4.27539 37.2754 4.27539C34.2378 4.27539 31.7754 6.73782 31.7754 9.77539C31.7754 10.88 30.88 11.7754 29.7754 11.7754C28.6708 11.7754 27.7754 10.88 27.7754 9.77539C27.7754 4.52868 32.0287 0.275389 37.2754 0.27539C42.5221 0.27539 46.7754 4.52869 46.7754 9.77539Z" fill="#222160"/>
</svg>
