<svg width="100" height="100" viewBox="0 0 100 100" fill="none" xmlns="http://www.w3.org/2000/svg">
<path d="M33.2754 40.7754L33.4551 40.7803C35.3046 40.8738 36.7754 42.4027 36.7754 44.2754C36.7754 44.4347 36.7638 44.5914 36.7432 44.7451C36.7371 44.7901 36.7294 44.8345 36.7217 44.8789C36.6973 45.0189 36.6664 45.1563 36.626 45.29C36.5992 45.3787 36.5677 45.4653 36.5342 45.5508C36.5246 45.5753 36.515 45.5998 36.5049 45.624C36.4735 45.699 36.4396 45.7725 36.4033 45.8447C36.3398 45.971 36.2692 46.093 36.1914 46.21C36.1765 46.2324 36.1609 46.2543 36.1455 46.2764C36.1307 46.2976 36.1159 46.3189 36.1006 46.3398C36.0837 46.3629 36.0663 46.3856 36.0488 46.4082C36.0351 46.426 36.0209 46.4434 36.0068 46.4609C35.9506 46.5311 35.8924 46.5995 35.8311 46.665C35.8119 46.6856 35.7921 46.7055 35.7725 46.7256C35.757 46.7414 35.7414 46.757 35.7256 46.7725C35.706 46.7917 35.686 46.8104 35.666 46.8291C35.6386 46.8548 35.6112 46.8805 35.583 46.9053C35.5783 46.9094 35.574 46.9139 35.5693 46.918C35.4947 46.9828 35.4169 47.0441 35.3369 47.1025C35.3199 47.1149 35.3024 47.1266 35.2852 47.1387C35.2586 47.1574 35.2322 47.1764 35.2051 47.1943C35.1764 47.2133 35.1474 47.2318 35.1182 47.25C35.1051 47.2581 35.0923 47.2665 35.0791 47.2744C35.0444 47.2953 35.0091 47.3152 34.9736 47.335C34.9564 47.3445 34.9392 47.354 34.9219 47.3633C34.9054 47.3721 34.8887 47.3801 34.8721 47.3887C34.7892 47.4313 34.7047 47.4708 34.6182 47.5068C34.602 47.5136 34.5856 47.5199 34.5693 47.5264C34.4801 47.5619 34.3895 47.5948 34.2969 47.623C34.2817 47.6277 34.2662 47.6313 34.251 47.6357C34.1577 47.6628 34.0631 47.6868 33.9668 47.7061C33.9619 47.707 33.957 47.708 33.9521 47.709C33.8653 47.726 33.7774 47.7395 33.6885 47.75C33.6114 47.7591 33.5336 47.7665 33.4551 47.7705L33.2754 47.7754L33.1006 47.7715C32.9911 47.7661 32.883 47.7545 32.7764 47.7393C32.741 47.7342 32.7059 47.7278 32.6709 47.7217C32.5821 47.7062 32.4945 47.688 32.4082 47.666C32.3932 47.6622 32.3782 47.6583 32.3633 47.6543C32.3243 47.6438 32.2855 47.6329 32.2471 47.6211C32.1629 47.5953 32.0803 47.566 31.999 47.5342C31.9745 47.5246 31.95 47.515 31.9258 47.5049C31.8982 47.4933 31.871 47.481 31.8438 47.4688C31.8266 47.461 31.809 47.4543 31.792 47.4463C31.7627 47.4326 31.7339 47.4178 31.7051 47.4033C31.6248 47.3629 31.5463 47.3197 31.4697 47.2734C31.4608 47.2681 31.4522 47.2623 31.4434 47.2568C31.4086 47.2354 31.3738 47.214 31.3398 47.1914C31.3174 47.1765 31.2955 47.1609 31.2734 47.1455C31.2522 47.1306 31.2309 47.1159 31.21 47.1006C31.1869 47.0837 31.1642 47.0663 31.1416 47.0488C31.1238 47.0351 31.1064 47.0209 31.0889 47.0068C31.0187 46.9506 30.9503 46.8924 30.8848 46.8311C30.8643 46.8119 30.8443 46.7921 30.8242 46.7725C30.8084 46.757 30.7928 46.7414 30.7773 46.7256C30.7582 46.706 30.7394 46.686 30.7207 46.666C30.6232 46.5619 30.5316 46.4524 30.4473 46.3369C30.4349 46.3199 30.4232 46.3024 30.4111 46.2852C30.3924 46.2586 30.3734 46.2322 30.3555 46.2051C30.3365 46.1764 30.318 46.1474 30.2998 46.1182C30.2917 46.1051 30.2833 46.0923 30.2754 46.0791C30.2545 46.0444 30.2346 46.0091 30.2148 45.9736C30.2053 45.9565 30.1958 45.9392 30.1865 45.9219C30.1777 45.9054 30.1697 45.8887 30.1611 45.8721C30.1186 45.7892 30.0789 45.7047 30.043 45.6182C30.0362 45.602 30.0299 45.5856 30.0234 45.5693C29.9127 45.2914 29.837 44.9962 29.8008 44.6885C29.7917 44.6114 29.7842 44.5336 29.7803 44.4551L29.7754 44.2754C29.7754 42.3424 31.3424 40.7754 33.2754 40.7754Z" fill="#222160"/>
<path d="M66.2754 40.7754L66.4551 40.7803C68.3046 40.8738 69.7754 42.4027 69.7754 44.2754C69.7754 44.4347 69.7638 44.5914 69.7432 44.7451C69.7371 44.7901 69.7294 44.8345 69.7217 44.8789C69.6973 45.0189 69.6664 45.1563 69.626 45.29C69.5992 45.3787 69.5677 45.4653 69.5342 45.5508C69.5246 45.5753 69.515 45.5998 69.5049 45.624C69.4735 45.699 69.4396 45.7725 69.4033 45.8447C69.3398 45.971 69.2692 46.093 69.1914 46.21C69.1765 46.2324 69.1609 46.2543 69.1455 46.2764C69.1307 46.2976 69.1159 46.3189 69.1006 46.3398C69.0837 46.3629 69.0663 46.3856 69.0488 46.4082C69.0351 46.426 69.0209 46.4434 69.0068 46.4609C68.9506 46.5311 68.8924 46.5995 68.8311 46.665C68.8119 46.6856 68.7921 46.7055 68.7725 46.7256C68.757 46.7414 68.7414 46.757 68.7256 46.7725C68.706 46.7917 68.686 46.8104 68.666 46.8291C68.6386 46.8548 68.6112 46.8805 68.583 46.9053C68.5783 46.9094 68.574 46.9139 68.5693 46.918C68.4947 46.9828 68.4169 47.0441 68.3369 47.1025C68.3199 47.1149 68.3024 47.1266 68.2852 47.1387C68.2586 47.1574 68.2322 47.1764 68.2051 47.1943C68.1764 47.2133 68.1474 47.2318 68.1182 47.25C68.1051 47.2581 68.0923 47.2665 68.0791 47.2744C68.0444 47.2953 68.0091 47.3152 67.9736 47.335C67.9564 47.3445 67.9392 47.354 67.9219 47.3633C67.9054 47.3721 67.8887 47.3801 67.8721 47.3887C67.7892 47.4313 67.7047 47.4708 67.6182 47.5068C67.602 47.5136 67.5856 47.5199 67.5693 47.5264C67.4801 47.5619 67.3895 47.5948 67.2969 47.623C67.2817 47.6277 67.2662 47.6313 67.251 47.6357C67.1577 47.6628 67.0631 47.6868 66.9668 47.7061C66.9619 47.707 66.957 47.708 66.9521 47.709C66.8653 47.726 66.7774 47.7395 66.6885 47.75C66.6114 47.7591 66.5336 47.7665 66.4551 47.7705L66.2754 47.7754L66.1006 47.7715C65.9911 47.7661 65.883 47.7545 65.7764 47.7393C65.741 47.7342 65.7059 47.7278 65.6709 47.7217C65.5821 47.7062 65.4945 47.688 65.4082 47.666C65.3932 47.6622 65.3782 47.6583 65.3633 47.6543C65.3243 47.6438 65.2855 47.6329 65.2471 47.6211C65.1629 47.5953 65.0803 47.566 64.999 47.5342C64.9745 47.5246 64.95 47.515 64.9258 47.5049C64.8982 47.4933 64.871 47.481 64.8438 47.4688C64.8266 47.461 64.809 47.4543 64.792 47.4463C64.7627 47.4326 64.7339 47.4178 64.7051 47.4033C64.6248 47.3629 64.5463 47.3197 64.4697 47.2734C64.4608 47.2681 64.4522 47.2623 64.4434 47.2568C64.4086 47.2354 64.3738 47.214 64.3398 47.1914C64.3174 47.1765 64.2955 47.1609 64.2734 47.1455C64.2522 47.1306 64.2309 47.1159 64.21 47.1006C64.1869 47.0837 64.1642 47.0663 64.1416 47.0488C64.1238 47.0351 64.1064 47.0209 64.0889 47.0068C64.0187 46.9506 63.9503 46.8924 63.8848 46.8311C63.8643 46.8119 63.8443 46.7921 63.8242 46.7725C63.8084 46.757 63.7928 46.7414 63.7773 46.7256C63.7582 46.706 63.7394 46.686 63.7207 46.666C63.6232 46.5619 63.5316 46.4524 63.4473 46.3369C63.4349 46.3199 63.4232 46.3024 63.4111 46.2852C63.3924 46.2586 63.3734 46.2322 63.3555 46.2051C63.3365 46.1764 63.318 46.1474 63.2998 46.1182C63.2917 46.1051 63.2833 46.0923 63.2754 46.0791C63.2545 46.0444 63.2346 46.0091 63.2148 45.9736C63.2053 45.9565 63.1958 45.9392 63.1865 45.9219C63.1777 45.9054 63.1697 45.8887 63.1611 45.8721C63.1186 45.7892 63.0789 45.7047 63.043 45.6182C63.0362 45.602 63.0299 45.5856 63.0234 45.5693C62.9127 45.2914 62.837 44.9962 62.8008 44.6885C62.7917 44.6114 62.7842 44.5336 62.7803 44.4551L62.7754 44.2754C62.7754 42.3424 64.3424 40.7754 66.2754 40.7754Z" fill="#222160"/>
</svg>
