<svg width="104" height="57" viewBox="0 0 104 57" fill="none" xmlns="http://www.w3.org/2000/svg">
<path d="M29.9998 18.5C29.9998 20.433 31.5668 22 33.4998 22C35.4328 22 36.9998 20.433 36.9998 18.5C36.9998 16.567 35.4328 15 33.4998 15C31.5668 15 29.9998 16.567 29.9998 18.5Z" fill="#222160"/>
<path d="M32.9998 18.5L33.0095 18.3994C33.0494 18.2039 33.2037 18.0497 33.3992 18.0098L33.4998 18C33.7759 18 33.9998 18.2239 33.9998 18.5L33.99 18.6006C33.9435 18.8286 33.7415 19 33.4998 19L33.4998 22L33.6794 21.9951C35.5289 21.9016 36.9998 20.3727 36.9998 18.5C36.9998 16.567 35.4328 15 33.4998 15C31.5668 15 29.9998 16.567 29.9998 18.5L30.0046 18.6797C30.0982 20.5292 31.627 22 33.4998 22L33.4998 19C33.258 19 33.056 18.8286 33.0095 18.6006L32.9998 18.5Z" fill="#222160"/>
<path d="M63.9998 18.5C63.9998 20.433 65.5668 22 67.4998 22C69.4328 22 70.9998 20.433 70.9998 18.5C70.9998 16.567 69.4328 15 67.4998 15C65.5668 15 63.9998 16.567 63.9998 18.5Z" fill="#222160"/>
<path d="M66.9998 18.5L67.0095 18.3994C67.0494 18.2039 67.2037 18.0497 67.3992 18.0098L67.4998 18C67.7759 18 67.9998 18.2239 67.9998 18.5L67.99 18.6006C67.9435 18.8286 67.7415 19 67.4998 19L67.4998 22L67.6794 21.9951C69.5289 21.9016 70.9998 20.3727 70.9998 18.5C70.9998 16.567 69.4328 15 67.4998 15C65.5668 15 63.9998 16.567 63.9998 18.5L64.0046 18.6797C64.0982 20.5292 65.627 22 67.4998 22L67.4998 19C67.258 19 67.056 18.8286 67.0095 18.6006L66.9998 18.5Z" fill="#222160"/>
<path d="M60.9998 39.5C60.9998 45.0228 56.5226 49.5 50.9998 49.5C45.4769 49.5 40.9998 45.0228 40.9998 39.5C40.9998 33.9772 45.4769 32 50.9998 32C56.5226 32 60.9998 33.9772 60.9998 39.5Z" fill="#222160"/>
<path d="M56.9998 39.5C56.9998 38.0184 56.5034 37.4337 55.8796 37.0254C54.9961 36.4472 53.3939 36 50.9998 36C48.6056 36 47.0034 36.4472 46.1199 37.0254C45.4961 37.4337 44.9998 38.0184 44.9998 39.5C44.9998 42.8137 47.686 45.5 50.9998 45.5V49.5C45.4769 49.5 40.9998 45.0228 40.9998 39.5C40.9998 33.9772 45.4769 32 50.9998 32C56.5226 32 60.9998 33.9772 60.9998 39.5C60.9998 45.0228 56.5226 49.5 50.9998 49.5V45.5C54.3135 45.5 56.9998 42.8137 56.9998 39.5Z" fill="#222160"/>
<path d="M49.7644 47.0596C50.8359 46.7917 51.9222 47.4432 52.1902 48.5147C52.5305 49.8759 52.5663 51.9902 51.364 53.8398C50.0803 55.8148 47.7147 57 44.2498 57C43.1452 57 42.2498 56.1046 42.2498 55C42.2498 53.8954 43.1452 53 44.2498 53C46.7848 53 47.6692 52.1852 48.0105 51.6602C48.4332 51.0099 48.4689 50.1241 48.3093 49.4854C48.0414 48.4138 48.693 47.3276 49.7644 47.0596Z" fill="#222160"/>
<path d="M52.8816 47.0596C51.8101 46.7917 50.7238 47.4432 50.4558 48.5147C50.1155 49.8759 50.0797 51.9902 51.282 53.8398C52.5657 55.8148 54.9313 57 58.3962 57C59.5008 57 60.3962 56.1046 60.3962 55C60.3962 53.8954 59.5008 53 58.3962 53C55.8612 53 54.9768 52.1852 54.6355 51.6602C54.2128 51.0099 54.1771 50.1241 54.3367 49.4854C54.6045 48.4138 53.953 47.3276 52.8816 47.0596Z" fill="#222160"/>
<path d="M24.9206 0.00292341C26.0235 -0.05624 26.9658 0.789731 27.0251 1.89257C27.4405 9.63566 27.3952 21.2867 25.8816 31.0566C25.1279 35.9212 23.9876 40.479 22.2634 43.874C20.5648 47.2184 17.9807 49.9999 14.1706 50C10.4865 50 7.84647 47.5791 6.03097 44.5019C4.21287 41.4204 2.9651 37.2932 2.10323 32.9092C0.37265 24.1063 0.0770114 13.6219 0.326865 6.65722C0.366479 5.5535 1.29349 4.69106 2.39718 4.73046C3.50104 4.77006 4.36451 5.69692 4.32491 6.80078C4.08125 13.5931 4.37797 23.7444 6.02804 32.1377C6.85648 36.3516 7.9961 39.9625 9.4753 42.4697C10.9572 44.9814 12.5246 46 14.1706 46C15.6904 45.9999 17.232 44.9479 18.697 42.0635C20.1363 39.2295 21.1974 35.1617 21.9284 30.4434C23.3841 21.0468 23.4381 9.69757 23.031 2.10742C22.9718 1.00454 23.8178 0.0622585 24.9206 0.00292341Z" fill="#222160"/>
<path d="M78.5789 0.00292341C77.476 -0.05624 76.5337 0.789731 76.4744 1.89257C76.059 9.63566 76.1044 21.2867 77.618 31.0566C78.3716 35.9212 79.5119 40.479 81.2361 43.874C82.9347 47.2184 85.5188 49.9999 89.3289 50C93.013 50 95.653 47.5791 97.4685 44.5019C99.2866 41.4204 100.534 37.2932 101.396 32.9092C103.127 24.1063 103.423 13.6219 103.173 6.65722C103.133 5.5535 102.206 4.69106 101.102 4.73046C99.9985 4.77006 99.135 5.69692 99.1746 6.80078C99.4183 13.5931 99.1215 23.7444 97.4715 32.1377C96.643 36.3516 95.5034 39.9625 94.0242 42.4697C92.5423 44.9814 90.9749 46 89.3289 46C87.8091 45.9999 86.2676 44.9479 84.8025 42.0635C83.3632 39.2295 82.3021 35.1617 81.5711 30.4434C80.1154 21.0468 80.0614 9.69757 80.4685 2.10742C80.5277 1.00454 79.6817 0.0622585 78.5789 0.00292341Z" fill="#222160"/>
</svg>
