<svg width="100" height="100" viewBox="0 0 100 100" fill="none" xmlns="http://www.w3.org/2000/svg">
<path d="M43 36.5C43 40.6421 39.6421 44 35.5 44C31.3579 44 28 40.6421 28 36.5C28 32.3579 31.3579 29 35.5 29C39.6421 29 43 32.3579 43 36.5Z" fill="#222160"/>
<path d="M39 36.5C39 34.567 37.433 33 35.5 33C33.567 33 32 34.567 32 36.5C32 38.433 33.567 40 35.5 40V44C31.3579 44 28 40.6421 28 36.5C28 32.3579 31.3579 29 35.5 29C39.6421 29 43 32.3579 43 36.5C43 40.6421 39.6421 44 35.5 44V40C37.433 40 39 38.433 39 36.5Z" fill="#222160"/>
<path d="M70 36.5C70 40.6421 66.6421 44 62.5 44C58.3579 44 55 40.6421 55 36.5C55 32.3579 58.3579 29 62.5 29C66.6421 29 70 32.3579 70 36.5Z" fill="#222160"/>
<path d="M66 36.5C66 34.567 64.433 33 62.5 33C60.567 33 59 34.567 59 36.5C59 38.433 60.567 40 62.5 40V44C58.3579 44 55 40.6421 55 36.5C55 32.3579 58.3579 29 62.5 29C66.6421 29 70 32.3579 70 36.5C70 40.6421 66.6421 44 62.5 44V40C64.433 40 66 38.433 66 36.5Z" fill="#222160"/>
<path d="M72 50C72 62.1503 62.1503 72 50 72V68C58.5663 68 65.7348 62.0159 67.5537 54H32.4463C34.2652 62.0159 41.4337 68 50 68V72C37.8497 72 28 62.1503 28 50H72Z" fill="#222160"/>
</svg>
