<svg width="104" height="57" viewBox="0 0 104 57" fill="none" xmlns="http://www.w3.org/2000/svg">
<mask id="path-1-inside-1_1505_6021" fill="white">
<ellipse cx="3.5" cy="3.5" rx="3.5" ry="3.5" transform="matrix(-1 -8.74228e-08 -8.74228e-08 1 34.25 14.7499)"/>
</mask>
<ellipse cx="3.5" cy="3.5" rx="3.5" ry="3.5" transform="matrix(-1 -8.74228e-08 -8.74228e-08 1 34.25 14.7499)" fill="#222160"/>
<path d="M31.25 18.2499C31.25 17.9737 31.0261 17.7499 30.75 17.7499L30.75 25.7499C26.6079 25.7499 23.25 22.392 23.25 18.2499L31.25 18.2499ZM30.75 17.7499C30.4739 17.7499 30.25 17.9737 30.25 18.2499L38.25 18.2499C38.25 22.392 34.8921 25.7499 30.75 25.7499L30.75 17.7499ZM30.25 18.2499C30.25 18.526 30.4739 18.7499 30.75 18.7499L30.75 10.7499C34.8921 10.7499 38.25 14.1077 38.25 18.2499L30.25 18.2499ZM30.75 18.7499C31.0261 18.7499 31.25 18.526 31.25 18.2499L23.25 18.2499C23.25 14.1077 26.6079 10.7499 30.75 10.7499L30.75 18.7499Z" fill="#222160" mask="url(#path-1-inside-1_1505_6021)"/>
<mask id="path-3-inside-2_1505_6021" fill="white">
<ellipse cx="3.5" cy="3.5" rx="3.5" ry="3.5" transform="matrix(-1 -8.74228e-08 -8.74228e-08 1 68.25 14.7499)"/>
</mask>
<ellipse cx="3.5" cy="3.5" rx="3.5" ry="3.5" transform="matrix(-1 -8.74228e-08 -8.74228e-08 1 68.25 14.7499)" fill="#222160"/>
<path d="M65.25 18.2499C65.25 17.9737 65.0261 17.7499 64.75 17.7499L64.75 25.7499C60.6079 25.7499 57.25 22.392 57.25 18.2499L65.25 18.2499ZM64.75 17.7499C64.4739 17.7499 64.25 17.9737 64.25 18.2499L72.25 18.2499C72.25 22.392 68.8921 25.7499 64.75 25.7499L64.75 17.7499ZM64.25 18.2499C64.25 18.526 64.4739 18.7499 64.75 18.7499L64.75 10.7499C68.8921 10.7499 72.25 14.1077 72.25 18.2499L64.25 18.2499ZM64.75 18.7499C65.0261 18.7499 65.25 18.526 65.25 18.2499L57.25 18.2499C57.25 14.1077 60.6079 10.7499 64.75 10.7499L64.75 18.7499Z" fill="#222160" mask="url(#path-3-inside-2_1505_6021)"/>
<path d="M51.25 34C53.8279 34 55.879 34.4711 57.2256 35.3525C58.4423 36.149 59.25 37.3785 59.25 39.5C59.25 43.9183 55.6683 47.5 51.25 47.5C46.8317 47.5 43.25 43.9183 43.25 39.5C43.25 37.3785 44.0577 36.149 45.2744 35.3525C46.621 34.4711 48.6721 34 51.25 34Z" fill="#222160" stroke="#222160" stroke-width="4" stroke-linecap="round"/>
<path d="M50.25 49C50.75 51 50.25 55 44.25 55" stroke="#222160" stroke-width="4" stroke-linecap="round"/>
<path d="M52.3965 49C51.8965 51 52.3965 55 58.3965 55" stroke="#222160" stroke-width="4" stroke-linecap="round"/>
<path d="M2.32612 6.72897C1.8326 20.486 3.51059 48 14.1708 48C24.8309 48 25.8509 17.3333 25.0284 2" stroke="#222160" stroke-width="4" stroke-linecap="round"/>
<path d="M101.174 6.72897C101.667 20.486 99.9894 48 89.3292 48C78.6691 48 77.6491 17.3333 78.4716 2" stroke="#222160" stroke-width="4" stroke-linecap="round"/>
</svg>
