<svg width="117" height="100" viewBox="0 0 117 100" fill="none" xmlns="http://www.w3.org/2000/svg">
<path d="M52.2246 65.25C52.2246 66.3546 51.3292 67.25 50.2246 67.25C49.12 67.25 48.2246 66.3546 48.2246 65.25C48.2246 62.2124 45.7622 59.75 42.7246 59.75C39.687 59.75 37.2246 62.2124 37.2246 65.25C37.2246 66.3546 36.3292 67.25 35.2246 67.25C34.12 67.25 33.2246 66.3546 33.2246 65.25C33.2246 60.0033 37.4779 55.75 42.7246 55.75C47.9713 55.75 52.2246 60.0033 52.2246 65.25Z" fill="#222160"/>
<path d="M79.2246 65.5254C79.2246 66.63 78.3292 67.5254 77.2246 67.5254C76.12 67.5254 75.2246 66.63 75.2246 65.5254C75.2246 62.4878 72.7622 60.0254 69.7246 60.0254C66.687 60.0254 64.2246 62.4878 64.2246 65.5254C64.2246 66.63 63.3292 67.5254 62.2246 67.5254C61.12 67.5254 60.2246 66.63 60.2246 65.5254C60.2246 60.2787 64.4779 56.0254 69.7246 56.0254C74.9713 56.0254 79.2246 60.2787 79.2246 65.5254Z" fill="#222160"/>
<path d="M15.2246 30.2499V2.24994C15.2246 1.44111 15.7118 0.71191 16.459 0.402287C17.2063 0.092725 18.0667 0.263885 18.6387 0.835881L45.6387 27.8359C46.4197 28.6169 46.4197 29.883 45.6387 30.664C44.8576 31.4451 43.5916 31.4451 42.8105 30.664L19.2246 7.07807V30.2499C19.2246 31.3545 18.3292 32.2499 17.2246 32.2499C16.12 32.2499 15.2246 31.3545 15.2246 30.2499Z" fill="#222160"/>
<path d="M97.2246 30.2499V2.24994C97.2246 1.44111 96.7374 0.71191 95.9902 0.402287C95.2429 0.092725 94.3825 0.263885 93.8105 0.835881L66.8105 27.8359C66.0295 28.6169 66.0295 29.883 66.8105 30.664C67.5916 31.4451 68.8576 31.4451 69.6387 30.664L93.2246 7.07807V30.2499C93.2246 31.3545 94.12 32.2499 95.2246 32.2499C96.3292 32.2499 97.2246 31.3545 97.2246 30.2499Z" fill="#222160"/>
<path d="M57.7246 84.25C53.5825 84.25 50.2246 80.8921 50.2246 76.75L65.2246 76.75C65.2246 80.8921 61.8667 84.25 57.7246 84.25Z" fill="#222160"/>
<path d="M44.2246 76.75C45.3292 76.75 46.2246 77.6454 46.2246 78.75C46.2246 79.8546 45.3292 80.75 44.2246 80.75H2.22461C1.12004 80.75 0.224609 79.8546 0.224609 78.75C0.224609 77.6454 1.12004 76.75 2.22461 76.75H44.2246Z" fill="#222160"/>
<path d="M114.225 76.75C115.329 76.75 116.225 77.6454 116.225 78.75C116.225 79.8546 115.329 80.75 114.225 80.75H72.2246C71.12 80.75 70.2246 79.8546 70.2246 78.75C70.2246 77.6454 71.12 76.75 72.2246 76.75H114.225Z" fill="#222160"/>
<path d="M114.225 85.75C115.329 85.75 116.225 86.6454 116.225 87.75C116.225 88.8546 115.329 89.75 114.225 89.75H72.2246C71.12 89.75 70.2246 88.8546 70.2246 87.75C70.2246 86.6454 71.12 85.75 72.2246 85.75H114.225Z" fill="#222160"/>
<path d="M44.2246 85.75C45.3292 85.75 46.2246 86.6454 46.2246 87.75C46.2246 88.8546 45.3292 89.75 44.2246 89.75H2.22461C1.12004 89.75 0.224609 88.8546 0.224609 87.75C0.224609 86.6454 1.12004 85.75 2.22461 85.75H44.2246Z" fill="#222160"/>
<path d="M44.2246 85.75C45.3292 85.75 46.2246 86.6454 46.2246 87.75C46.2246 88.8546 45.3292 89.75 44.2246 89.75H2.22461C1.12004 89.75 0.224609 88.8546 0.224609 87.75C0.224609 86.6454 1.12004 85.75 2.22461 85.75H44.2246Z" fill="#222160"/>
<path d="M57.4316 81.7715C58.5242 81.6097 59.5413 82.3644 59.7031 83.457C60.0892 86.0633 59.7894 89.9797 57.5293 93.3105C55.1856 96.7646 50.9664 99.25 44.2246 99.25C43.12 99.25 42.2246 98.3546 42.2246 97.25C42.2246 96.1454 43.12 95.25 44.2246 95.25C49.8827 95.25 52.7468 93.2353 54.2197 91.0644C55.7762 88.7704 56.0266 85.9367 55.7461 84.043C55.5843 82.9504 56.339 81.9333 57.4316 81.7715Z" fill="#222160"/>
<path d="M57.6387 81.7715C56.5461 81.6097 55.5291 82.3644 55.3672 83.457C54.9811 86.0633 55.281 89.9797 57.541 93.3105C59.8848 96.7646 64.1039 99.25 70.8457 99.25C71.9503 99.25 72.8457 98.3546 72.8457 97.25C72.8457 96.1454 71.9503 95.25 70.8457 95.25C65.1876 95.25 62.3235 93.2353 60.8506 91.0644C59.2941 88.7704 59.0437 85.9367 59.3242 84.043C59.486 82.9504 58.7313 81.9333 57.6387 81.7715Z" fill="#222160"/>
</svg>
