<svg width="100" height="100" viewBox="0 0 100 100" fill="none" xmlns="http://www.w3.org/2000/svg">
<path d="M44 60C44 61.1046 43.1046 62 42 62C40.8954 62 40 61.1046 40 60C40 56.9624 37.5376 54.5 34.5 54.5C31.4624 54.5 29 56.9624 29 60C29 61.1046 28.1046 62 27 62C25.8954 62 25 61.1046 25 60C25 54.7533 29.2533 50.5 34.5 50.5C39.7467 50.5 44 54.7533 44 60Z" fill="#222160"/>
<path d="M71 60.2754C71 61.38 70.1046 62.2754 69 62.2754C67.8954 62.2754 67 61.38 67 60.2754C67 57.2378 64.5376 54.7754 61.5 54.7754C58.4624 54.7754 56 57.2378 56 60.2754C56 61.38 55.1046 62.2754 54 62.2754C52.8954 62.2754 52 61.38 52 60.2754C52 55.0287 56.2533 50.7754 61.5 50.7754C66.7467 50.7754 71 55.0287 71 60.2754Z" fill="#222160"/>
<path d="M49.5 79C45.3579 79 42 75.6421 42 71.5L57 71.5C57 75.6421 53.6421 79 49.5 79Z" fill="#222160"/>
<path d="M88.7826 71.5C89.455 71.5 90 72.3954 90 73.5C90 74.6046 89.455 75.5 88.7826 75.5H63.2174C62.545 75.5 62 74.6046 62 73.5C62 72.3954 62.545 71.5 63.2174 71.5H88.7826Z" fill="#222160"/>
<path d="M33.7826 71.5C34.455 71.5 35 72.3954 35 73.5C35 74.6046 34.455 75.5 33.7826 75.5H8.21739C7.54504 75.5 7 74.6046 7 73.5C7 72.3954 7.54504 71.5 8.21739 71.5H33.7826Z" fill="#222160"/>
<path d="M88.7826 80.5C89.455 80.5 90 81.3954 90 82.5C90 83.6046 89.455 84.5 88.7826 84.5H63.2174C62.545 84.5 62 83.6046 62 82.5C62 81.3954 62.545 80.5 63.2174 80.5H88.7826Z" fill="#222160"/>
<path d="M33.7826 80.5C34.455 80.5 35 81.3954 35 82.5C35 83.6046 34.455 84.5 33.7826 84.5H8.21739C7.54504 84.5 7 83.6046 7 82.5C7 81.3954 7.54504 80.5 8.21739 80.5H33.7826Z" fill="#222160"/>
<path d="M49.207 76.5216C50.2996 76.3598 51.3166 77.1145 51.4785 78.2071C51.8646 80.8134 51.5647 84.7298 49.3047 88.0607C46.9609 91.5147 42.7418 94.0001 36 94.0001C34.8954 94.0001 34 93.1047 34 92.0001C34 90.8955 34.8954 90.0001 36 90.0001C41.6581 90.0001 44.5222 87.9854 45.9951 85.8146C47.5516 83.5205 47.802 80.6868 47.5215 78.7931C47.3597 77.7005 48.1144 76.6835 49.207 76.5216Z" fill="#222160"/>
<path d="M49.4141 76.5216C48.3215 76.3598 47.3044 77.1145 47.1426 78.2071C46.7565 80.8134 47.0563 84.7298 49.3164 88.0607C51.6602 91.5147 55.8793 94.0001 62.6211 94.0001C63.7257 94.0001 64.6211 93.1047 64.6211 92.0001C64.6211 90.8955 63.7257 90.0001 62.6211 90.0001C56.963 90.0001 54.0989 87.9854 52.626 85.8146C51.0695 83.5205 50.8191 80.6868 51.0996 78.7931C51.2614 77.7005 50.5067 76.6835 49.4141 76.5216Z" fill="#222160"/>
</svg>
