<svg width="62" height="41" viewBox="0 0 62 41" fill="none" xmlns="http://www.w3.org/2000/svg">
<path d="M36.75 30.75C36.75 34.8921 33.3921 38.25 29.25 38.25" stroke="#222160" stroke-width="4" stroke-linecap="round"/>
<path d="M13.75 25.75C7.39873 25.75 2.25 20.6013 2.25 14.25C2.25 7.89872 7.39873 2.75 13.75 2.75C20.1013 2.75 25.25 7.89873 25.25 14.25C25.25 20.6013 20.1013 25.75 13.75 25.75Z" stroke="#222160" stroke-width="4" stroke-linecap="round"/>
<mask id="path-3-inside-1_1505_6031" fill="white">
<ellipse cx="3.5" cy="3.5" rx="3.5" ry="3.5" transform="matrix(-1 -8.74228e-08 -8.74228e-08 1 17.25 5.75)"/>
</mask>
<ellipse cx="3.5" cy="3.5" rx="3.5" ry="3.5" transform="matrix(-1 -8.74228e-08 -8.74228e-08 1 17.25 5.75)" fill="#222160"/>
<path d="M14.25 9.25C14.25 8.97386 14.0261 8.75 13.75 8.75L13.75 16.75C9.60786 16.75 6.25 13.3921 6.25 9.25L14.25 9.25ZM13.75 8.75C13.4739 8.75 13.25 8.97386 13.25 9.25L21.25 9.25C21.25 13.3921 17.8921 16.75 13.75 16.75L13.75 8.75ZM13.25 9.25C13.25 9.52614 13.4739 9.75 13.75 9.75L13.75 1.75C17.8921 1.75 21.25 5.10787 21.25 9.25L13.25 9.25ZM13.75 9.75C14.0261 9.75 14.25 9.52614 14.25 9.25L6.25 9.25C6.25 5.10786 9.60786 1.75 13.75 1.75L13.75 9.75Z" fill="#222160" mask="url(#path-3-inside-1_1505_6031)"/>
<mask id="path-5-inside-2_1505_6031" fill="white">
<ellipse cx="3.5" cy="3.5" rx="3.5" ry="3.5" transform="matrix(-1 -8.74228e-08 -8.74228e-08 1 51.25 5.75)"/>
</mask>
<ellipse cx="3.5" cy="3.5" rx="3.5" ry="3.5" transform="matrix(-1 -8.74228e-08 -8.74228e-08 1 51.25 5.75)" fill="#222160"/>
<path d="M48.25 9.25C48.25 8.97386 48.0261 8.75 47.75 8.75L47.75 16.75C43.6079 16.75 40.25 13.3921 40.25 9.25L48.25 9.25ZM47.75 8.75C47.4739 8.75 47.25 8.97386 47.25 9.25L55.25 9.25C55.25 13.3921 51.8921 16.75 47.75 16.75L47.75 8.75ZM47.25 9.25C47.25 9.52614 47.4739 9.75 47.75 9.75L47.75 1.75C51.8921 1.75 55.25 5.10787 55.25 9.25L47.25 9.25ZM47.75 9.75C48.0261 9.75 48.25 9.52614 48.25 9.25L40.25 9.25C40.25 5.10786 43.6079 1.75 47.75 1.75L47.75 9.75Z" fill="#222160" mask="url(#path-5-inside-2_1505_6031)"/>
<path d="M47.75 25.75C41.3987 25.75 36.25 20.6013 36.25 14.25C36.25 7.89872 41.3987 2.75 47.75 2.75C54.1013 2.75 59.25 7.89873 59.25 14.25C59.25 20.6013 54.1013 25.75 47.75 25.75Z" stroke="#222160" stroke-width="4" stroke-linecap="round"/>
<line x1="27.25" y1="13.75" x2="34.25" y2="13.75" stroke="#222160" stroke-width="4" stroke-linecap="round"/>
</svg>
