<svg width="42" height="11" viewBox="0 0 42 11" fill="none" xmlns="http://www.w3.org/2000/svg">
<path d="M0.25 4C0.25 5.933 1.817 7.5 3.75 7.5C5.683 7.5 7.25 5.933 7.25 4C7.25 2.067 5.683 0.5 3.75 0.5C1.817 0.5 0.25 2.067 0.25 4Z" fill="#222160"/>
<path d="M3.25 4L3.25977 3.89941C3.29966 3.70392 3.45392 3.54966 3.64941 3.50977L3.75 3.5C4.02614 3.5 4.25 3.72386 4.25 4L4.24023 4.10059C4.19371 4.32855 3.99171 4.5 3.75 4.5L3.75 7.5L3.92969 7.49512C5.77917 7.40158 7.25 5.87273 7.25 4C7.25 2.067 5.683 0.5 3.75 0.5C1.817 0.5 0.25 2.067 0.25 4L0.254883 4.17969C0.348421 6.02917 1.87727 7.5 3.75 7.5L3.75 4.5C3.50829 4.5 3.30629 4.32855 3.25977 4.10059L3.25 4Z" fill="#222160"/>
<path d="M34.25 4C34.25 5.933 35.817 7.5 37.75 7.5C39.683 7.5 41.25 5.933 41.25 4C41.25 2.067 39.683 0.5 37.75 0.5C35.817 0.5 34.25 2.067 34.25 4Z" fill="#222160"/>
<path d="M37.25 4L37.2598 3.89941C37.2997 3.70392 37.4539 3.54966 37.6494 3.50977L37.75 3.5C38.0261 3.5 38.25 3.72386 38.25 4L38.2402 4.10059C38.1937 4.32855 37.9917 4.5 37.75 4.5L37.75 7.5L37.9297 7.49512C39.7792 7.40158 41.25 5.87273 41.25 4C41.25 2.067 39.683 0.5 37.75 0.5C35.817 0.5 34.25 2.067 34.25 4L34.2549 4.17969C34.3484 6.02917 35.8773 7.5 37.75 7.5L37.75 4.5C37.5083 4.5 37.3063 4.32855 37.2598 4.10059L37.25 4Z" fill="#222160"/>
<path d="M24.25 6.5C25.3546 6.5 26.25 7.39543 26.25 8.5C26.25 9.60457 25.3546 10.5 24.25 10.5H17.25C16.1454 10.5 15.25 9.60457 15.25 8.5C15.25 7.39543 16.1454 6.5 17.25 6.5H24.25Z" fill="#222160"/>
</svg>
