<svg width="101" height="100" viewBox="0 0 101 100" fill="none" xmlns="http://www.w3.org/2000/svg">
<path d="M0.275361 49.202L0.275361 62.0462L11.1088 62.0462L11.1088 83.4415L33.6895 83.4415L33.6895 99.5254L67.0906 99.5254L67.0906 83.2378L89.0711 83.2378L89.0711 62.0462L100.275 62.0462L100.275 50.734C100.275 24.3075 78.145 0.974664 50.3905 0.974663C22.9217 0.974663 0.275361 22.7512 0.275361 49.202Z" fill="#E61E2A"/>
<path d="M53.7754 63.9746C53.7754 68.1167 50.4175 71.4746 46.2754 71.4746" stroke="#222160" stroke-width="4" stroke-linecap="round"/>
<path d="M19.2754 47.4746C19.2754 41.1233 24.4241 35.9746 30.7754 35.9746C37.1266 35.9746 42.2754 41.1233 42.2754 47.4746C42.2754 53.8259 37.1266 58.9746 30.7754 58.9746C24.4241 58.9746 19.2754 53.8259 19.2754 47.4746Z" stroke="#222160" stroke-width="4" stroke-linecap="round"/>
<mask id="path-4-inside-1_1089_372" fill="white">
<ellipse cx="3.5" cy="3.5" rx="3.5" ry="3.5" transform="matrix(-1 -8.74228e-08 -8.74228e-08 1 34.2754 38.9746)"/>
</mask>
<ellipse cx="3.5" cy="3.5" rx="3.5" ry="3.5" transform="matrix(-1 -8.74228e-08 -8.74228e-08 1 34.2754 38.9746)" fill="#222160"/>
<path d="M31.2754 42.4746C31.2754 42.1985 31.0515 41.9746 30.7754 41.9746L30.7754 49.9746C26.6332 49.9746 23.2754 46.6167 23.2754 42.4746L31.2754 42.4746ZM30.7754 41.9746C30.4992 41.9746 30.2754 42.1985 30.2754 42.4746L38.2754 42.4746C38.2754 46.6167 34.9175 49.9746 30.7754 49.9746L30.7754 41.9746ZM30.2754 42.4746C30.2754 42.7508 30.4992 42.9746 30.7754 42.9746L30.7754 34.9746C34.9175 34.9746 38.2754 38.3325 38.2754 42.4746L30.2754 42.4746ZM30.7754 42.9746C31.0515 42.9746 31.2754 42.7508 31.2754 42.4746L23.2754 42.4746C23.2754 38.3325 26.6332 34.9746 30.7754 34.9746L30.7754 42.9746Z" fill="#222160" mask="url(#path-4-inside-1_1089_372)"/>
<mask id="path-6-inside-2_1089_372" fill="white">
<ellipse cx="3.5" cy="3.5" rx="3.5" ry="3.5" transform="matrix(-1 -8.74228e-08 -8.74228e-08 1 68.2754 38.9746)"/>
</mask>
<ellipse cx="3.5" cy="3.5" rx="3.5" ry="3.5" transform="matrix(-1 -8.74228e-08 -8.74228e-08 1 68.2754 38.9746)" fill="#222160"/>
<path d="M65.2754 42.4746C65.2754 42.1985 65.0515 41.9746 64.7754 41.9746L64.7754 49.9746C60.6332 49.9746 57.2754 46.6167 57.2754 42.4746L65.2754 42.4746ZM64.7754 41.9746C64.4992 41.9746 64.2754 42.1985 64.2754 42.4746L72.2754 42.4746C72.2754 46.6167 68.9175 49.9746 64.7754 49.9746L64.7754 41.9746ZM64.2754 42.4746C64.2754 42.7508 64.4992 42.9746 64.7754 42.9746L64.7754 34.9746C68.9175 34.9746 72.2754 38.3325 72.2754 42.4746L64.2754 42.4746ZM64.7754 42.9746C65.0515 42.9746 65.2754 42.7508 65.2754 42.4746L57.2754 42.4746C57.2754 38.3325 60.6332 34.9746 64.7754 34.9746L64.7754 42.9746Z" fill="#222160" mask="url(#path-6-inside-2_1089_372)"/>
<path d="M53.2754 47.4746C53.2754 41.1233 58.4241 35.9746 64.7754 35.9746C71.1266 35.9746 76.2754 41.1233 76.2754 47.4746C76.2754 53.8259 71.1266 58.9746 64.7754 58.9746C58.4241 58.9746 53.2754 53.8259 53.2754 47.4746Z" stroke="#222160" stroke-width="4" stroke-linecap="round"/>
<line x1="44.2754" y1="46.9746" x2="51.2754" y2="46.9746" stroke="#222160" stroke-width="4" stroke-linecap="round"/>
</svg>
