<svg width="100" height="100" viewBox="0 0 100 100" fill="none" xmlns="http://www.w3.org/2000/svg">
<path d="M56.9492 33.75C56.9492 29.6079 60.3071 26.25 64.4492 26.25C68.5914 26.25 71.9492 29.6079 71.9492 33.75C71.9492 37.8921 68.5914 41.25 64.4492 41.25C60.3071 41.25 56.9492 37.8921 56.9492 33.75Z" fill="#222160"/>
<path d="M60.9492 33.75C60.9492 35.683 62.5162 37.25 64.4492 37.25C66.3822 37.25 67.9492 35.683 67.9492 33.75C67.9492 31.817 66.3822 30.25 64.4492 30.25L64.4492 26.25C68.5914 26.25 71.9492 29.6079 71.9492 33.75C71.9492 37.8921 68.5914 41.25 64.4492 41.25C60.3071 41.25 56.9492 37.8921 56.9492 33.75C56.9492 29.6079 60.3071 26.25 64.4492 26.25L64.4492 30.25C62.5162 30.25 60.9492 31.817 60.9492 33.75Z" fill="#222160"/>
<path d="M27.5 33.75C27.5 29.6079 30.8579 26.25 35 26.25C39.1421 26.25 42.5 29.6079 42.5 33.75C42.5 37.8921 39.1421 41.25 35 41.25C30.8579 41.25 27.5 37.8921 27.5 33.75Z" fill="#222160"/>
<path d="M31.5 33.75C31.5 35.683 33.067 37.25 35 37.25C36.933 37.25 38.5 35.683 38.5 33.75C38.5 31.817 36.933 30.25 35 30.25L35 26.25C39.1421 26.25 42.5 29.6079 42.5 33.75C42.5 37.8921 39.1421 41.25 35 41.25C30.8579 41.25 27.5 37.8921 27.5 33.75C27.5 29.6079 30.8579 26.25 35 26.25L35 30.25C33.067 30.25 31.5 31.817 31.5 33.75Z" fill="#222160"/>
<path d="M42.9492 73.25L37.9492 73.25L37.9492 56.25L42.9492 56.25L42.9492 73.25Z" fill="#222160"/>
<path d="M52.9492 73.25L47.9492 73.25L47.9492 56.25L52.9492 56.25L52.9492 73.25Z" fill="#222160"/>
<path d="M62.9492 73.25L57.9492 73.25L57.9492 56.25L62.9492 56.25L62.9492 73.25Z" fill="#222160"/>
</svg>
