<svg width="45" height="44" viewBox="0 0 45 44" fill="none" xmlns="http://www.w3.org/2000/svg">
<path d="M15.7754 7.75C15.7754 11.8921 12.4175 15.25 8.27539 15.25C4.13326 15.25 0.775391 11.8921 0.775391 7.75C0.775391 3.60786 4.13326 0.25 8.27539 0.25C12.4175 0.25 15.7754 3.60786 15.7754 7.75Z" fill="#222160"/>
<path d="M11.7754 7.75C11.7754 5.817 10.2084 4.25 8.27539 4.25C6.34239 4.25 4.77539 5.817 4.77539 7.75C4.77539 9.683 6.34239 11.25 8.27539 11.25V15.25C4.13326 15.25 0.775391 11.8921 0.775391 7.75C0.775391 3.60786 4.13326 0.25 8.27539 0.25C12.4175 0.25 15.7754 3.60786 15.7754 7.75C15.7754 11.8921 12.4175 15.25 8.27539 15.25V11.25C10.2084 11.25 11.7754 9.683 11.7754 7.75Z" fill="#222160"/>
<path d="M42.7754 7.75C42.7754 11.8921 39.4175 15.25 35.2754 15.25C31.1333 15.25 27.7754 11.8921 27.7754 7.75C27.7754 3.60786 31.1333 0.25 35.2754 0.25C39.4175 0.25 42.7754 3.60786 42.7754 7.75Z" fill="#222160"/>
<path d="M38.7754 7.75C38.7754 5.817 37.2084 4.25 35.2754 4.25C33.3424 4.25 31.7754 5.817 31.7754 7.75C31.7754 9.683 33.3424 11.25 35.2754 11.25V15.25C31.1333 15.25 27.7754 11.8921 27.7754 7.75C27.7754 3.60786 31.1333 0.25 35.2754 0.25C39.4175 0.25 42.7754 3.60786 42.7754 7.75C42.7754 11.8921 39.4175 15.25 35.2754 15.25V11.25C37.2084 11.25 38.7754 9.683 38.7754 7.75Z" fill="#222160"/>
<path d="M44.7754 21.25C44.7754 33.4003 34.9257 43.25 22.7754 43.25V39.25C31.3417 39.25 38.5102 33.2659 40.3291 25.25H5.22168C7.04062 33.2659 14.2091 39.25 22.7754 39.25V43.25C10.6251 43.25 0.775391 33.4003 0.775391 21.25H44.7754Z" fill="#222160"/>
</svg>
