<svg width="100" height="100" viewBox="0 0 100 100" fill="none" xmlns="http://www.w3.org/2000/svg">
<path d="M25.6711 21.0029C26.774 20.9438 27.7163 21.7897 27.7756 22.8926C28.191 30.6357 28.1456 42.2867 26.632 52.0566C25.8784 56.9212 24.7381 61.479 23.0139 64.874C21.3153 68.2184 18.7312 70.9999 14.9211 71C11.237 71 8.59696 68.5791 6.78146 65.5019C4.96336 62.4204 3.71559 58.2932 2.85372 53.9092C1.12314 45.1063 0.8275 34.6219 1.07735 27.6572C1.11697 26.5535 2.04397 25.6911 3.14767 25.7305C4.25153 25.7701 5.115 26.6969 5.0754 27.8008C4.83173 34.5931 5.12846 44.7444 6.77853 53.1377C7.60697 57.3516 8.74659 60.9625 10.2258 63.4697C11.7077 65.9814 13.2751 67 14.9211 67C16.4409 66.9999 17.9824 65.9479 19.4475 63.0635C20.8868 60.2295 21.9479 56.1617 22.6789 51.4434C24.1346 42.0468 24.1886 30.6976 23.7815 23.1074C23.7223 22.0045 24.5683 21.0623 25.6711 21.0029Z" fill="#222160"/>
<path d="M74.3294 21.0029C73.2265 20.9438 72.2842 21.7897 72.2249 22.8926C71.8095 30.6357 71.8548 42.2867 73.3684 52.0566C74.1221 56.9212 75.2624 61.479 76.9866 64.874C78.6852 68.2184 81.2692 70.9999 85.0794 71C88.7635 71 91.4035 68.5791 93.219 65.5019C95.0371 62.4204 96.2849 58.2932 97.1468 53.9092C98.8773 45.1063 99.173 34.6219 98.9231 27.6572C98.8835 26.5535 97.9565 25.6911 96.8528 25.7305C95.749 25.7701 94.8855 26.6969 94.9251 27.8008C95.1688 34.5931 94.872 44.7444 93.222 53.1377C92.3935 57.3516 91.2539 60.9625 89.7747 63.4697C88.2928 65.9814 86.7254 67 85.0794 67C83.5596 66.9999 82.018 65.9479 80.553 63.0635C79.1137 60.2295 78.0526 56.1617 77.3216 51.4434C75.8659 42.0468 75.8119 30.6976 76.219 23.1074C76.2782 22.0045 75.4322 21.0623 74.3294 21.0029Z" fill="#222160"/>
</svg>
