<svg width="99" height="101" viewBox="0 0 99 101" fill="none" xmlns="http://www.w3.org/2000/svg">
<path d="M50.548 0.0253906L37.7038 0.0253906V10.8588H16.3085L16.3085 33.4396H0.22464L0.22464 66.8406H16.5122L16.5122 88.8212H37.7038V100.025H49.0161C75.4426 100.025 98.7754 77.895 98.7754 50.1406C98.7754 22.6717 76.9989 0.0253906 50.548 0.0253906Z" fill="#E61E2A"/>
<mask id="path-2-inside-1_1254_464" fill="white">
<ellipse cx="3.5" cy="3.5" rx="3.5" ry="3.5" transform="matrix(-1 -8.74228e-08 -8.74228e-08 1 53.5 38.75)"/>
</mask>
<ellipse cx="3.5" cy="3.5" rx="3.5" ry="3.5" transform="matrix(-1 -8.74228e-08 -8.74228e-08 1 53.5 38.75)" fill="#222160"/>
<path d="M50.5 42.25C50.5 41.9739 50.2762 41.75 50 41.75L50 49.75C45.8579 49.75 42.5 46.3921 42.5 42.25L50.5 42.25ZM50 41.75C49.7239 41.75 49.5 41.9739 49.5 42.25L57.5 42.25C57.5 46.3921 54.1422 49.75 50 49.75L50 41.75ZM49.5 42.25C49.5 42.5261 49.7239 42.75 50 42.75L50 34.75C54.1422 34.75 57.5 38.1079 57.5 42.25L49.5 42.25ZM50 42.75C50.2762 42.75 50.5 42.5261 50.5 42.25L42.5 42.25C42.5 38.1079 45.8579 34.75 50 34.75L50 42.75Z" fill="#222160" mask="url(#path-2-inside-1_1254_464)"/>
<mask id="path-4-inside-2_1254_464" fill="white">
<ellipse cx="3.5" cy="3.5" rx="3.5" ry="3.5" transform="matrix(-1 -8.74228e-08 -8.74228e-08 1 87.5001 38.75)"/>
</mask>
<ellipse cx="3.5" cy="3.5" rx="3.5" ry="3.5" transform="matrix(-1 -8.74228e-08 -8.74228e-08 1 87.5001 38.75)" fill="#222160"/>
<path d="M84.5001 42.25C84.5001 41.9739 84.2762 41.75 84.0001 41.75L84.0001 49.75C79.8579 49.75 76.5001 46.3921 76.5001 42.25L84.5001 42.25ZM84.0001 41.75C83.7239 41.75 83.5001 41.9739 83.5001 42.25L91.5001 42.25C91.5001 46.3921 88.1422 49.75 84.0001 49.75L84.0001 41.75ZM83.5001 42.25C83.5001 42.5261 83.7239 42.75 84.0001 42.75L84.0001 34.75C88.1422 34.75 91.5001 38.1079 91.5001 42.25L83.5001 42.25ZM84.0001 42.75C84.2762 42.75 84.5001 42.5261 84.5001 42.25L76.5001 42.25C76.5001 38.1079 79.8579 34.75 84.0001 34.75L84.0001 42.75Z" fill="#222160" mask="url(#path-4-inside-2_1254_464)"/>
<line x1="63.5" y1="46.75" x2="70.5" y2="46.75" stroke="#222160" stroke-width="4" stroke-linecap="round"/>
</svg>
