<svg width="100" height="100" viewBox="0 0 100 100" fill="none" xmlns="http://www.w3.org/2000/svg">
<path d="M96.3681 36.1026C97.3293 35.7812 98.3971 36.2332 98.8232 37.1768C99.2493 38.1207 98.882 39.2213 98.0048 39.7295L97.8232 39.8233L50.4882 61.1905L2.19136 39.8292L2.00777 39.7374C1.12705 39.2358 0.752243 38.1384 1.17085 37.1915C1.58977 36.2443 2.65428 35.7832 3.61812 36.0977L3.80855 36.171L50.4707 56.8086L96.1767 36.1768L96.3681 36.1026Z" fill="#222160"/>
<path d="M49 94L49 59C49 57.8954 49.8954 57 51 57C52.1046 57 53 57.8954 53 59L53 94C53 95.1046 52.1046 96 51 96C49.8954 96 49 95.1046 49 94Z" fill="#222160"/>
<path d="M11.2754 66.0254C11.2754 65.6372 10.9805 65.3179 10.6025 65.2793L10.5254 65.2754H2.77539C1.67082 65.2754 0.775391 64.38 0.775391 63.2754C0.775391 62.1708 1.67082 61.2754 2.77539 61.2754H10.5254L10.7695 61.2812C13.2794 61.4083 15.2754 63.4839 15.2754 66.0254C15.2754 68.6487 13.1487 70.7754 10.5254 70.7754H3.77539C2.67082 70.7754 1.77539 69.88 1.77539 68.7754C1.77539 67.6708 2.67082 66.7754 3.77539 66.7754H10.5254C10.9396 66.7754 11.2754 66.4396 11.2754 66.0254Z" fill="#222160"/>
<path d="M87.7754 66.0254C87.7754 65.6372 88.0703 65.3179 88.4482 65.2793L88.5254 65.2754H96.2754C97.38 65.2754 98.2754 64.38 98.2754 63.2754C98.2754 62.1708 97.38 61.2754 96.2754 61.2754H88.5254L88.2812 61.2812C85.7713 61.4083 83.7754 63.4839 83.7754 66.0254C83.7754 68.6487 85.902 70.7754 88.5254 70.7754H95.2754C96.38 70.7754 97.2754 69.88 97.2754 68.7754C97.2754 67.6708 96.38 66.7754 95.2754 66.7754H88.5254C88.1112 66.7754 87.7754 66.4396 87.7754 66.0254Z" fill="#222160"/>
<path d="M11.2754 72.5254C11.2754 72.1372 10.9805 71.8179 10.6025 71.7793L10.5254 71.7754H2.77539C1.67082 71.7754 0.775391 70.88 0.775391 69.7754C0.775391 68.6708 1.67082 67.7754 2.77539 67.7754H10.5254L10.7695 67.7812C13.2794 67.9083 15.2754 69.9839 15.2754 72.5254C15.2754 75.1487 13.1487 77.2754 10.5254 77.2754H3.77539C2.67082 77.2754 1.77539 76.38 1.77539 75.2754C1.77539 74.1708 2.67082 73.2754 3.77539 73.2754H10.5254C10.9396 73.2754 11.2754 72.9396 11.2754 72.5254Z" fill="#222160"/>
<path d="M87.7754 72.5254C87.7754 72.1372 88.0703 71.8179 88.4482 71.7793L88.5254 71.7754H96.2754C97.38 71.7754 98.2754 70.88 98.2754 69.7754C98.2754 68.6708 97.38 67.7754 96.2754 67.7754H88.5254L88.2812 67.7812C85.7713 67.9083 83.7754 69.9839 83.7754 72.5254C83.7754 75.1487 85.902 77.2754 88.5254 77.2754H95.2754C96.38 77.2754 97.2754 76.38 97.2754 75.2754C97.2754 74.1708 96.38 73.2754 95.2754 73.2754H88.5254C88.1112 73.2754 87.7754 72.9396 87.7754 72.5254Z" fill="#222160"/>
<path d="M11.2754 78.5254C11.2754 78.1372 10.9805 77.8179 10.6025 77.7793L10.5254 77.7754H2.77539C1.67082 77.7754 0.775391 76.88 0.775391 75.7754C0.775391 74.6708 1.67082 73.7754 2.77539 73.7754H10.5254L10.7695 73.7812C13.2794 73.9083 15.2754 75.9839 15.2754 78.5254C15.2754 81.1487 13.1487 83.2754 10.5254 83.2754H3.77539C2.67082 83.2754 1.77539 82.38 1.77539 81.2754C1.77539 80.1708 2.67082 79.2754 3.77539 79.2754H10.5254C10.9396 79.2754 11.2754 78.9396 11.2754 78.5254Z" fill="#222160"/>
<path d="M87.7754 78.5254C87.7754 78.1372 88.0703 77.8179 88.4482 77.7793L88.5254 77.7754H96.2754C97.38 77.7754 98.2754 76.88 98.2754 75.7754C98.2754 74.6708 97.38 73.7754 96.2754 73.7754H88.5254L88.2812 73.7812C85.7713 73.9083 83.7754 75.9839 83.7754 78.5254C83.7754 81.1487 85.902 83.2754 88.5254 83.2754H95.2754C96.38 83.2754 97.2754 82.38 97.2754 81.2754C97.2754 80.1708 96.38 79.2754 95.2754 79.2754H88.5254C88.1112 79.2754 87.7754 78.9396 87.7754 78.5254Z" fill="#222160"/>
<path d="M67.624 26.7803C74.8029 26.9623 80.5885 32.7479 80.7705 39.9268L80.7754 40.2754C80.7754 42.7096 80.1302 44.9928 79.0029 46.9648L63.7402 53.3047C58.4649 51.8769 54.4704 47.3342 53.8574 41.7705C53.8302 41.7716 53.8029 41.7754 53.7754 41.7754H46.7754C46.7475 41.7754 46.72 41.7716 46.6924 41.7705C46.1271 46.901 42.6862 51.1624 38.0176 52.915L21.2275 46.373C20.2987 44.5415 19.7754 42.4696 19.7754 40.2754L19.7803 39.9268C19.9652 32.632 25.9361 26.7754 33.2754 26.7754L33.624 26.7803C40.0744 26.9438 45.3985 31.6317 46.5449 37.7891C46.6206 37.7804 46.6974 37.7754 46.7754 37.7754H53.7754C53.8531 37.7754 53.9295 37.7814 54.0049 37.79C55.1714 31.5214 60.6686 26.7754 67.2754 26.7754L67.624 26.7803ZM33.2754 30.7754C28.0287 30.7754 23.7754 35.0287 23.7754 40.2754C23.7754 45.5221 28.0287 49.7754 33.2754 49.7754C38.5221 49.7754 42.7754 45.5221 42.7754 40.2754C42.7754 35.0287 38.5221 30.7754 33.2754 30.7754ZM67.2754 30.7754C62.0287 30.7754 57.7754 35.0287 57.7754 40.2754C57.7754 45.5221 62.0287 49.7754 67.2754 49.7754C72.5221 49.7754 76.7754 45.5221 76.7754 40.2754C76.7754 35.0287 72.5221 30.7754 67.2754 30.7754Z" fill="#222160"/>
</svg>
