<svg width="101" height="99" viewBox="0 0 101 99" fill="none" xmlns="http://www.w3.org/2000/svg">
<path d="M100.275 50.7726L100.275 37.9284L89.4419 37.9284L89.4419 16.5331L66.8612 16.5331L66.8612 0.449217L33.4601 0.449216L33.4601 16.7368L11.4796 16.7368L11.4796 37.9284L0.275358 37.9284L0.275358 49.2407C0.275357 75.6671 22.4057 98.9999 50.1602 98.9999C77.629 98.9999 100.275 77.2234 100.275 50.7726Z" fill="#E61E2A"/>
<path d="M29.2754 33.9492C29.2754 29.8071 32.6332 26.4492 36.7754 26.4492C40.9175 26.4492 44.2754 29.8071 44.2754 33.9492" stroke="#222160" stroke-width="4" stroke-linecap="round"/>
<path d="M58.2754 44.4492C58.2754 48.5914 54.9175 51.9492 50.7754 51.9492C46.6332 51.9492 43.2754 48.5914 43.2754 44.4492" stroke="#222160" stroke-width="4" stroke-linecap="round"/>
<path d="M56.2754 34.2246C56.2754 30.0825 59.6332 26.7246 63.7754 26.7246C67.9175 26.7246 71.2754 30.0825 71.2754 34.2246" stroke="#222160" stroke-width="4" stroke-linecap="round"/>
</svg>
