<svg width="100" height="100" viewBox="0 0 100 100" fill="none" xmlns="http://www.w3.org/2000/svg">
<path d="M58.7502 60.5C58.7502 66.0228 54.2731 70.5 48.7502 70.5C43.2274 70.5 38.7502 66.0228 38.7502 60.5C38.7502 54.9772 43.2274 53 48.7502 53C54.2731 53 58.7502 54.9772 58.7502 60.5Z" fill="#222160"/>
<path d="M47.5149 68.0596C48.5864 67.7917 49.6727 68.4432 49.9407 69.5147C50.281 70.8759 50.3167 72.9902 49.1145 74.8398C47.8308 76.8148 45.4652 78 42.0002 78C40.8957 78 40.0002 77.1046 40.0002 76C40.0002 74.8954 40.8957 74 42.0002 74C44.5353 74 45.4197 73.1852 45.761 72.6602C46.1837 72.0099 46.2194 71.1241 46.0598 70.4854C45.7919 69.4138 46.4434 68.3276 47.5149 68.0596Z" fill="#222160"/>
<path d="M50.6321 68.0596C49.5606 67.7917 48.4743 68.4432 48.2063 69.5147C47.866 70.8759 47.8302 72.9902 49.0325 74.8398C50.3162 76.8148 52.6818 78 56.1467 78C57.2513 78 58.1467 77.1046 58.1467 76C58.1467 74.8954 57.2513 74 56.1467 74C53.6117 74 52.7273 73.1852 52.386 72.6602C51.9633 72.0099 51.9275 71.1241 52.0872 70.4854C52.355 69.4138 51.7035 68.3276 50.6321 68.0596Z" fill="#222160"/>
<path d="M54.7502 60.5C54.7502 59.0184 54.2539 58.4337 53.6301 58.0254C52.7466 57.4472 51.1444 57 48.7502 57C46.3561 57 44.7539 57.4472 43.8704 58.0254C43.2466 58.4337 42.7502 59.0184 42.7502 60.5C42.7502 63.8137 45.4365 66.5 48.7502 66.5V70.5C43.2274 70.5 38.7502 66.0228 38.7502 60.5C38.7502 54.9772 43.2274 53 48.7502 53C54.2731 53 58.7502 54.9772 58.7502 60.5C58.7502 66.0228 54.2731 70.5 48.7502 70.5V66.5C52.064 66.5 54.7502 63.8137 54.7502 60.5Z" fill="#222160"/>
<path d="M37.7502 39.5C37.7502 41.433 39.3172 43 41.2502 43C43.1832 43 44.7502 41.433 44.7502 39.5C44.7502 37.567 43.1832 36 41.2502 36C39.3172 36 37.7502 37.567 37.7502 39.5Z" fill="#222160"/>
<path d="M54.7502 39.5C54.7502 41.433 56.3172 43 58.2502 43C60.1832 43 61.7502 41.433 61.7502 39.5C61.7502 37.567 60.1832 36 58.2502 36C56.3172 36 54.7502 37.567 54.7502 39.5Z" fill="#222160"/>
</svg>
