<svg width="46" height="48" viewBox="0 0 46 48" fill="none" xmlns="http://www.w3.org/2000/svg">
<path d="M30.2246 7.75C30.2246 3.60786 33.5825 0.249999 37.7246 0.249999C41.8667 0.25 45.2246 3.60786 45.2246 7.75C45.2246 11.8921 41.8667 15.25 37.7246 15.25C33.5825 15.25 30.2246 11.8921 30.2246 7.75Z" fill="#222160"/>
<path d="M34.2246 7.75C34.2246 9.683 35.7916 11.25 37.7246 11.25C39.6576 11.25 41.2246 9.683 41.2246 7.75C41.2246 5.817 39.6576 4.25 37.7246 4.25L37.7246 0.249999C41.8667 0.25 45.2246 3.60786 45.2246 7.75C45.2246 11.8921 41.8667 15.25 37.7246 15.25C33.5825 15.25 30.2246 11.8921 30.2246 7.75C30.2246 3.60786 33.5825 0.249999 37.7246 0.249999L37.7246 4.25C35.7916 4.25 34.2246 5.817 34.2246 7.75Z" fill="#222160"/>
<path d="M0.775391 7.75C0.775392 3.60786 4.13326 0.249999 8.27539 0.249999C12.4175 0.25 15.7754 3.60786 15.7754 7.75C15.7754 11.8921 12.4175 15.25 8.27539 15.25C4.13326 15.25 0.775391 11.8921 0.775391 7.75Z" fill="#222160"/>
<path d="M4.77539 7.75C4.77539 9.683 6.34239 11.25 8.27539 11.25C10.2084 11.25 11.7754 9.683 11.7754 7.75C11.7754 5.817 10.2084 4.25 8.27539 4.25L8.27539 0.249999C12.4175 0.25 15.7754 3.60786 15.7754 7.75C15.7754 11.8921 12.4175 15.25 8.27539 15.25C4.13326 15.25 0.775391 11.8921 0.775391 7.75C0.775392 3.60786 4.13326 0.249999 8.27539 0.249999L8.27539 4.25C6.34239 4.25 4.77539 5.817 4.77539 7.75Z" fill="#222160"/>
<path d="M16.2246 47.25L11.2246 47.25L11.2246 30.25L16.2246 30.25L16.2246 47.25Z" fill="#222160"/>
<path d="M26.2246 47.25L21.2246 47.25L21.2246 30.25L26.2246 30.25L26.2246 47.25Z" fill="#222160"/>
<path d="M36.2246 47.25L31.2246 47.25L31.2246 30.25L36.2246 30.25L36.2246 47.25Z" fill="#222160"/>
</svg>
