<svg width="100" height="100" viewBox="0 0 100 100" fill="none" xmlns="http://www.w3.org/2000/svg">
<path d="M8 30.9999V2.99994C8 2.19111 8.48717 1.46191 9.23438 1.15229C9.98172 0.842725 10.8421 1.01388 11.4141 1.58588L38.4141 28.5859C39.1951 29.3669 39.1951 30.633 38.4141 31.414C37.633 32.1951 36.367 32.1951 35.5859 31.414L12 7.82807V30.9999C12 32.1045 11.1046 32.9999 10 32.9999C8.89543 32.9999 8 32.1045 8 30.9999Z" fill="#222160"/>
<path d="M90 30.9999V2.99994C90 2.19111 89.5128 1.46191 88.7656 1.15229C88.0183 0.842725 87.1579 1.01388 86.5859 1.58588L59.5859 28.5859C58.8049 29.3669 58.8049 30.633 59.5859 31.414C60.367 32.1951 61.633 32.1951 62.4141 31.414L86 7.82807V30.9999C86 32.1045 86.8954 32.9999 88 32.9999C89.1046 32.9999 90 32.1045 90 30.9999Z" fill="#222160"/>
</svg>
