<svg width="100" height="100" viewBox="0 0 100 100" fill="none" xmlns="http://www.w3.org/2000/svg">
<path d="M53.75 60.75C53.75 59.6454 54.6454 58.75 55.75 58.75C56.8546 58.75 57.75 59.6454 57.75 60.75C57.75 65.9967 53.4967 70.25 48.25 70.25C47.1454 70.25 46.25 69.3546 46.25 68.25C46.25 67.1454 47.1454 66.25 48.25 66.25C51.2876 66.25 53.75 63.7876 53.75 60.75Z" fill="#222160"/>
<path d="M23.25 44.25C23.25 49.4967 27.5033 53.75 32.75 53.75C37.9967 53.75 42.25 49.4967 42.25 44.25C42.25 39.0033 37.9967 34.75 32.75 34.75L32.75 30.75L33.0986 30.7549C40.2775 30.9369 46.0631 36.7225 46.2451 43.9014L46.25 44.25C46.25 51.7058 40.2058 57.75 32.75 57.75L32.4014 57.7451C25.1067 57.5602 19.25 51.5893 19.25 44.25L19.2549 43.9014C19.4398 36.6067 25.4107 30.75 32.75 30.75L32.75 34.75C27.5033 34.75 23.25 39.0033 23.25 44.25Z" fill="#222160"/>
<path d="M57.25 44.25C57.25 49.4967 61.5033 53.75 66.75 53.75C71.9967 53.75 76.25 49.4967 76.25 44.25C76.25 39.0033 71.9967 34.75 66.75 34.75L66.75 30.75L67.0986 30.7549C74.2775 30.9369 80.0631 36.7225 80.2451 43.9014L80.25 44.25C80.25 51.7058 74.2058 57.75 66.75 57.75L66.4014 57.7451C59.1067 57.5602 53.25 51.5893 53.25 44.25L53.2549 43.9014C53.4398 36.6067 59.4107 30.75 66.75 30.75L66.75 34.75C61.5033 34.75 57.25 39.0033 57.25 44.25Z" fill="#222160"/>
<path d="M53.25 41.75C54.3546 41.75 55.25 42.6454 55.25 43.75C55.25 44.8546 54.3546 45.75 53.25 45.75H46.25C45.1454 45.75 44.25 44.8546 44.25 43.75C44.25 42.6454 45.1454 41.75 46.25 41.75H53.25Z" fill="#222160"/>
</svg>
