<svg width="62" height="41" viewBox="0 0 62 41" fill="none" xmlns="http://www.w3.org/2000/svg">
<path d="M34.75 30.75C34.75 29.6454 35.6454 28.75 36.75 28.75C37.8546 28.75 38.75 29.6454 38.75 30.75C38.75 35.9967 34.4967 40.25 29.25 40.25C28.1454 40.25 27.25 39.3546 27.25 38.25C27.25 37.1454 28.1454 36.25 29.25 36.25C32.2876 36.25 34.75 33.7876 34.75 30.75Z" fill="#222160"/>
<path d="M4.25 14.25C4.25 19.4967 8.50329 23.75 13.75 23.75C18.9967 23.75 23.25 19.4967 23.25 14.25C23.25 9.0033 18.9967 4.75 13.75 4.75L13.75 0.75L14.0986 0.754883C21.2775 0.936869 27.0631 6.72251 27.2451 13.9014L27.25 14.25C27.25 21.7058 21.2058 27.75 13.75 27.75L13.4014 27.7451C6.10665 27.5602 0.249997 21.5893 0.249998 14.25L0.254881 13.9014C0.439803 6.60665 6.41072 0.75 13.75 0.75L13.75 4.75C8.50329 4.75 4.25 9.0033 4.25 14.25Z" fill="#222160"/>
<path d="M10.25 9.25C10.25 11.183 11.817 12.75 13.75 12.75C15.683 12.75 17.25 11.183 17.25 9.25C17.25 7.317 15.683 5.75 13.75 5.75C11.817 5.75 10.25 7.317 10.25 9.25Z" fill="#222160"/>
<path d="M13.25 9.25L13.2598 9.14941C13.2997 8.95392 13.4539 8.79966 13.6494 8.75977L13.75 8.75C14.0261 8.75 14.25 8.97386 14.25 9.25L14.2402 9.35059C14.1937 9.57855 13.9917 9.75 13.75 9.75L13.75 12.75L13.9297 12.7451C15.7792 12.6516 17.25 11.1227 17.25 9.25C17.25 7.317 15.683 5.75 13.75 5.75C11.817 5.75 10.25 7.317 10.25 9.25L10.2549 9.42969C10.3484 11.2792 11.8773 12.75 13.75 12.75L13.75 9.75C13.5083 9.75 13.3063 9.57855 13.2598 9.35059L13.25 9.25Z" fill="#222160"/>
<path d="M44.25 9.25C44.25 11.183 45.817 12.75 47.75 12.75C49.683 12.75 51.25 11.183 51.25 9.25C51.25 7.317 49.683 5.75 47.75 5.75C45.817 5.75 44.25 7.317 44.25 9.25Z" fill="#222160"/>
<path d="M47.25 9.25L47.2598 9.14941C47.2997 8.95392 47.4539 8.79966 47.6494 8.75977L47.75 8.75C48.0261 8.75 48.25 8.97386 48.25 9.25L48.2402 9.35059C48.1937 9.57855 47.9917 9.75 47.75 9.75L47.75 12.75L47.9297 12.7451C49.7792 12.6516 51.25 11.1227 51.25 9.25C51.25 7.317 49.683 5.75 47.75 5.75C45.817 5.75 44.25 7.317 44.25 9.25L44.2549 9.42969C44.3484 11.2792 45.8773 12.75 47.75 12.75L47.75 9.75C47.5083 9.75 47.3063 9.57855 47.2598 9.35059L47.25 9.25Z" fill="#222160"/>
<path d="M38.25 14.25C38.25 19.4967 42.5033 23.75 47.75 23.75C52.9967 23.75 57.25 19.4967 57.25 14.25C57.25 9.0033 52.9967 4.75 47.75 4.75L47.75 0.75L48.0986 0.754883C55.2775 0.936869 61.0631 6.72251 61.2451 13.9014L61.25 14.25C61.25 21.7058 55.2058 27.75 47.75 27.75L47.4014 27.7451C40.1067 27.5602 34.25 21.5893 34.25 14.25L34.2549 13.9014C34.4398 6.60665 40.4107 0.75 47.75 0.75L47.75 4.75C42.5033 4.75 38.25 9.0033 38.25 14.25Z" fill="#222160"/>
<path d="M34.25 11.75C35.3546 11.75 36.25 12.6454 36.25 13.75C36.25 14.8546 35.3546 15.75 34.25 15.75H27.25C26.1454 15.75 25.25 14.8546 25.25 13.75C25.25 12.6454 26.1454 11.75 27.25 11.75H34.25Z" fill="#222160"/>
</svg>
