<svg width="103" height="81" viewBox="0 0 103 81" fill="none" xmlns="http://www.w3.org/2000/svg">
<path d="M2.25 11.75L51.75 32.25L100.25 11.75" stroke="#222160" stroke-width="4" stroke-linecap="round"/>
<mask id="mask0_1505_6044" style="mask-type:alpha" maskUnits="userSpaceOnUse" x="21" y="0" width="62" height="28">
<path d="M34.75 25.25C28.3987 25.25 23.25 20.1013 23.25 13.75C23.25 7.39872 28.3987 2.25 34.75 2.25C41.1013 2.25 46.25 7.39873 46.25 13.75C46.25 20.1013 41.1013 25.25 34.75 25.25Z" stroke="#222160" stroke-width="4" stroke-linecap="round"/>
<mask id="path-3-inside-1_1505_6044" fill="white">
<ellipse cx="3.5" cy="3.5" rx="3.5" ry="3.5" transform="matrix(-1 -8.74228e-08 -8.74228e-08 1 38.25 14.25)"/>
</mask>
<ellipse cx="3.5" cy="3.5" rx="3.5" ry="3.5" transform="matrix(-1 -8.74228e-08 -8.74228e-08 1 38.25 14.25)" fill="#222160"/>
<path d="M35.25 17.75C35.25 17.4739 35.0261 17.25 34.75 17.25L34.75 25.25C30.6079 25.25 27.25 21.8921 27.25 17.75L35.25 17.75ZM34.75 17.25C34.4739 17.25 34.25 17.4739 34.25 17.75L42.25 17.75C42.25 21.8921 38.8921 25.25 34.75 25.25L34.75 17.25ZM34.25 17.75C34.25 18.0261 34.4739 18.25 34.75 18.25L34.75 10.25C38.8921 10.25 42.25 13.6079 42.25 17.75L34.25 17.75ZM34.75 18.25C35.0261 18.25 35.25 18.0261 35.25 17.75L27.25 17.75C27.25 13.6079 30.6079 10.25 34.75 10.25L34.75 18.25Z" fill="#222160" mask="url(#path-3-inside-1_1505_6044)"/>
<mask id="path-5-inside-2_1505_6044" fill="white">
<ellipse cx="3.5" cy="3.5" rx="3.5" ry="3.5" transform="matrix(-1 -8.74228e-08 -8.74228e-08 1 71.25 14.25)"/>
</mask>
<ellipse cx="3.5" cy="3.5" rx="3.5" ry="3.5" transform="matrix(-1 -8.74228e-08 -8.74228e-08 1 71.25 14.25)" fill="#222160"/>
<path d="M68.25 17.75C68.25 17.4739 68.0261 17.25 67.75 17.25L67.75 25.25C63.6079 25.25 60.25 21.8921 60.25 17.75L68.25 17.75ZM67.75 17.25C67.4739 17.25 67.25 17.4739 67.25 17.75L75.25 17.75C75.25 21.8921 71.8921 25.25 67.75 25.25L67.75 17.25ZM67.25 17.75C67.25 18.0261 67.4739 18.25 67.75 18.25L67.75 10.25C71.8921 10.25 75.25 13.6079 75.25 17.75L67.25 17.75ZM67.75 18.25C68.0261 18.25 68.25 18.0261 68.25 17.75L60.25 17.75C60.25 13.6079 63.6079 10.25 67.75 10.25L67.75 18.25Z" fill="#222160" mask="url(#path-5-inside-2_1505_6044)"/>
<path d="M68.75 25.25C62.3987 25.25 57.25 20.1013 57.25 13.75C57.25 7.39872 62.3987 2.25 68.75 2.25C75.1013 2.25 80.25 7.39873 80.25 13.75C80.25 20.1013 75.1013 25.25 68.75 25.25Z" stroke="#222160" stroke-width="4" stroke-linecap="round"/>
</mask>
<g mask="url(#mask0_1505_6044)">
<path d="M51.75 -9.25L18.75 -4.75L14.75 16.75L53.25 31.75L85.75 18.25L81.75 -4.75L51.75 -9.25Z" fill="#222160"/>
</g>
<line x1="48.25" y1="13.25" x2="55.25" y2="13.25" stroke="#222160" stroke-width="4" stroke-linecap="round"/>
<path d="M52.25 32.25V78.75" stroke="#222160" stroke-width="4" stroke-linecap="round"/>
<path d="M2.25 36.75H10C11.5188 36.75 12.75 37.9812 12.75 39.5V39.5C12.75 41.0188 11.5188 42.25 10 42.25H3.25" stroke="#222160" stroke-width="4" stroke-linecap="round"/>
<path d="M100.75 36.75H93C91.4812 36.75 90.25 37.9812 90.25 39.5V39.5C90.25 41.0188 91.4812 42.25 93 42.25H99.75" stroke="#222160" stroke-width="4" stroke-linecap="round"/>
<path d="M2.25 43.25H10C11.5188 43.25 12.75 44.4812 12.75 46V46C12.75 47.5188 11.5188 48.75 10 48.75H3.25" stroke="#222160" stroke-width="4" stroke-linecap="round"/>
<path d="M100.75 43.25H93C91.4812 43.25 90.25 44.4812 90.25 46V46C90.25 47.5188 91.4812 48.75 93 48.75H99.75" stroke="#222160" stroke-width="4" stroke-linecap="round"/>
<path d="M2.25 49.25H10C11.5188 49.25 12.75 50.4812 12.75 52V52C12.75 53.5188 11.5188 54.75 10 54.75H3.25" stroke="#222160" stroke-width="4" stroke-linecap="round"/>
<path d="M100.75 49.25H93C91.4812 49.25 90.25 50.4812 90.25 52V52C90.25 53.5188 91.4812 54.75 93 54.75H99.75" stroke="#222160" stroke-width="4" stroke-linecap="round"/>
</svg>
