<svg width="117" height="100" viewBox="0 0 117 100" fill="none" xmlns="http://www.w3.org/2000/svg">
<path d="M35.2246 65.25C35.2246 61.1079 38.5825 57.75 42.7246 57.75C46.8667 57.75 50.2246 61.1079 50.2246 65.25" stroke="#222160" stroke-width="4" stroke-linecap="round"/>
<path d="M62.2246 65.5254C62.2246 61.3833 65.5825 58.0254 69.7246 58.0254C73.8667 58.0254 77.2246 61.3833 77.2246 65.5254" stroke="#222160" stroke-width="4" stroke-linecap="round"/>
<path d="M17.2246 30.25V2.25L44.2246 29.25" stroke="#222160" stroke-width="4" stroke-linecap="round" stroke-linejoin="round"/>
<path d="M95.2246 30.25V2.25L68.2246 29.25" stroke="#222160" stroke-width="4" stroke-linecap="round" stroke-linejoin="round"/>
<path d="M57.7246 82.25C55.3929 82.25 53.4018 80.7983 52.6016 78.75L62.8477 78.75C62.0474 80.7983 60.0563 82.25 57.7246 82.25Z" stroke="#222160" stroke-width="4"/>
<line x1="2.22461" y1="78.75" x2="44.2246" y2="78.75" stroke="#222160" stroke-width="4" stroke-linecap="round"/>
<line x1="72.2246" y1="78.75" x2="114.225" y2="78.75" stroke="#222160" stroke-width="4" stroke-linecap="round"/>
<line x1="72.2246" y1="87.75" x2="114.225" y2="87.75" stroke="#222160" stroke-width="4" stroke-linecap="round"/>
<line x1="2.22461" y1="87.75" x2="44.2246" y2="87.75" stroke="#222160" stroke-width="4" stroke-linecap="round"/>
<line x1="2.22461" y1="87.75" x2="44.2246" y2="87.75" stroke="#222160" stroke-width="4" stroke-linecap="round"/>
<path d="M57.7246 83.75C58.3913 88.25 56.6246 97.25 44.2246 97.25" stroke="#222160" stroke-width="4" stroke-linecap="round" stroke-linejoin="round"/>
<path d="M57.3457 83.75C56.679 88.25 58.4457 97.25 70.8457 97.25" stroke="#222160" stroke-width="4" stroke-linecap="round" stroke-linejoin="round"/>
</svg>
