<svg width="103" height="83" viewBox="0 0 103 83" fill="none" xmlns="http://www.w3.org/2000/svg">
<path d="M80.0006 15.5C80.0006 9.14873 74.8518 4 68.5006 4C62.1493 4 57.0006 9.14873 57.0006 15.5C57.0006 17.381 57.6904 19.479 58.8599 21.4336C59.9537 23.2616 61.3885 24.8313 62.8258 25.8652L63.1129 26.0645L63.2769 26.1865C63.4036 26.2912 63.5126 26.4105 63.607 26.5381L79.4429 19.9209C79.3726 19.5957 79.3824 19.2486 79.4879 18.9082C79.8207 17.8337 80.0006 16.6897 80.0006 15.5ZM10.5006 53.75C10.5006 53.3358 10.1648 53 9.75056 53H2.00056C0.895992 53 0.000561276 52.1046 0.000561276 51C0.000563111 50.0172 0.709741 49.2014 1.64412 49.0332C2.00075 48.7032 2.47638 48.5 3.00056 48.5H9.75056C10.1648 48.5 10.5006 48.1642 10.5006 47.75C10.5006 47.3358 10.1648 47 9.75056 47H2.00056C0.895992 47 0.000561276 46.1046 0.000561276 45C0.000562791 44.1884 0.484676 43.4913 1.17927 43.1777C1.49307 42.4838 2.18943 42 3.00056 42H9.75056C10.1648 42 10.5006 41.6642 10.5006 41.25C10.5006 40.8358 10.1648 40.5 9.75056 40.5H2.00056C0.895992 40.5 0.000561276 39.6046 0.000561276 38.5C0.000563338 37.3954 0.895993 36.5 2.00056 36.5H9.75056C12.3739 36.5 14.5006 38.6266 14.5006 41.25C14.5006 42.508 14.0098 43.6502 13.2115 44.5C14.0098 45.3498 14.5006 46.492 14.5006 47.75C14.5006 48.888 14.0996 49.932 13.4322 50.75C14.0996 51.568 14.5006 52.612 14.5006 53.75C14.5006 56.3734 12.3739 58.5 9.75056 58.5H3.00056C1.89599 58.5 1.00056 57.6046 1.00056 56.5C1.00056 55.3954 1.89599 54.5 3.00056 54.5H9.75056C10.1648 54.5 10.5006 54.1642 10.5006 53.75ZM88.0006 53.75C88.0006 52.6122 88.4008 51.5679 89.0679 50.75C88.4008 49.9321 88.0006 48.8878 88.0006 47.75C88.0006 46.4922 88.4906 45.3498 89.2887 44.5C88.4906 43.6502 88.0006 42.5078 88.0006 41.25C88.0006 38.6266 90.1272 36.5 92.7506 36.5H100.501C101.605 36.5 102.501 37.3954 102.501 38.5C102.501 39.6046 101.605 40.5 100.501 40.5H92.7506C92.3364 40.5 92.0006 40.8358 92.0006 41.25C92.0006 41.6642 92.3363 42 92.7506 42H99.5006C100.312 42 101.008 42.4838 101.322 43.1777C102.016 43.4913 102.501 44.1884 102.501 45C102.501 46.1046 101.605 47 100.501 47H92.7506C92.3364 47 92.0006 47.3358 92.0006 47.75C92.0006 48.1642 92.3363 48.5 92.7506 48.5H99.5006C100.025 48.5 100.5 48.7032 100.857 49.0332C101.791 49.2014 102.501 50.0172 102.501 51C102.501 52.1046 101.605 53 100.501 53H92.7506C92.3364 53 92.0006 53.3358 92.0006 53.75C92.0006 54.1642 92.3363 54.5 92.7506 54.5H99.5006C100.605 54.5 101.501 55.3954 101.501 56.5C101.501 57.6046 100.605 58.5 99.5006 58.5H92.7506C90.1272 58.5 88.0006 56.3734 88.0006 53.75ZM49.9254 17C49.4975 21.455 47.1856 25.3547 43.7965 27.8994L52.0064 31.3848L59.4361 28.2803C57.9108 26.9733 56.5179 25.3099 55.4273 23.4873C54.2564 21.5304 53.3732 19.2891 53.0943 17H49.9254ZM23.0006 15.5C23.0006 17.11 23.3309 18.6384 23.9254 20.0254L39.2242 25.9863C43.2217 24.1827 46.0006 20.1645 46.0006 15.5C46.0006 9.14873 40.8518 4 34.5006 4C28.1493 4 23.0006 9.14873 23.0006 15.5ZM84.0006 15.5C84.0006 16.3884 83.923 17.26 83.7789 18.1094L99.2291 11.6543C100.248 11.2285 101.42 11.7095 101.846 12.7285C102.272 13.7476 101.791 14.9198 100.772 15.3457L54.0006 34.8867V80.5C54.0006 81.6046 53.1051 82.5 52.0006 82.5C50.896 82.5 50.0006 81.6046 50.0006 80.5V34.9072L1.25642 15.3564L1.0699 15.2705C0.172234 14.8 -0.241076 13.7168 0.144116 12.7559C0.5296 11.7948 1.57723 11.2969 2.55134 11.5771L2.7447 11.6436L19.2457 18.2617C19.0843 17.365 19.0006 16.4419 19.0006 15.5C19.0006 6.93959 25.9401 1.34637e-06 34.5006 0C42.2098 6.44136e-07 48.6029 5.62841 49.7984 13H53.2027C54.3982 5.6284 60.7913 -6.44136e-07 68.5006 0C77.061 7.15256e-07 84.0006 6.93959 84.0006 15.5Z" fill="#222160"/>
<path d="M34.7837 14.0068C37.6897 14.1542 40.0005 16.5574 40.0005 19.5C40.0005 22.5376 37.5381 25 34.5005 25C31.4629 25 29.0005 22.5376 29.0005 19.5C29.0005 16.4624 31.4629 14 34.5005 14L34.7837 14.0068ZM67.5005 14C70.5381 14 73.0005 16.4624 73.0005 19.5C73.0005 22.5376 70.5381 25 67.5005 25C64.4629 25 62.0005 22.5376 62.0005 19.5C62.0005 16.4624 64.4629 14 67.5005 14Z" fill="#222160"/>
</svg>
