<svg width="100" height="100" viewBox="0 0 100 100" fill="none" xmlns="http://www.w3.org/2000/svg">
<path d="M29.25 48C29.25 49.933 30.817 51.5 32.75 51.5C34.683 51.5 36.25 49.933 36.25 48C36.25 46.067 34.683 44.5 32.75 44.5C30.817 44.5 29.25 46.067 29.25 48Z" fill="#222160"/>
<path d="M32.25 48L32.2598 47.8994C32.2997 47.7039 32.4539 47.5497 32.6494 47.5098L32.75 47.5C33.0261 47.5 33.25 47.7239 33.25 48L33.2402 48.1006C33.1937 48.3286 32.9917 48.5 32.75 48.5L32.75 51.5L32.9297 51.4951C34.7792 51.4016 36.25 49.8727 36.25 48C36.25 46.067 34.683 44.5 32.75 44.5C30.817 44.5 29.25 46.067 29.25 48L29.2549 48.1797C29.3484 50.0292 30.8773 51.5 32.75 51.5L32.75 48.5C32.5083 48.5 32.3063 48.3286 32.2598 48.1006L32.25 48Z" fill="#222160"/>
<path d="M63.25 48C63.25 49.933 64.817 51.5 66.75 51.5C68.683 51.5 70.25 49.933 70.25 48C70.25 46.067 68.683 44.5 66.75 44.5C64.817 44.5 63.25 46.067 63.25 48Z" fill="#222160"/>
<path d="M66.25 48L66.2598 47.8994C66.2997 47.7039 66.4539 47.5497 66.6494 47.5098L66.75 47.5C67.0261 47.5 67.25 47.7239 67.25 48L67.2402 48.1006C67.1937 48.3286 66.9917 48.5 66.75 48.5L66.75 51.5L66.9297 51.4951C68.7792 51.4016 70.25 49.8727 70.25 48C70.25 46.067 68.683 44.5 66.75 44.5C64.817 44.5 63.25 46.067 63.25 48L63.2549 48.1797C63.3484 50.0292 64.8773 51.5 66.75 51.5L66.75 48.5C66.5083 48.5 66.3063 48.3286 66.2598 48.1006L66.25 48Z" fill="#222160"/>
<path d="M53.25 50.5C54.3546 50.5 55.25 51.3954 55.25 52.5C55.25 53.6046 54.3546 54.5 53.25 54.5H46.25C45.1454 54.5 44.25 53.6046 44.25 52.5C44.25 51.3954 45.1454 50.5 46.25 50.5H53.25Z" fill="#222160"/>
</svg>
