<svg width="100" height="100" viewBox="0 0 100 100" fill="none" xmlns="http://www.w3.org/2000/svg">
<path d="M46 43.5C46 44.6046 45.1046 45.5 44 45.5C42.8954 45.5 42 44.6046 42 43.5C42 40.4624 39.5376 38 36.5 38C33.4624 38 31 40.4624 31 43.5C31 44.6046 30.1046 45.5 29 45.5C27.8954 45.5 27 44.6046 27 43.5C27 38.2533 31.2533 34 36.5 34C41.7467 34 46 38.2533 46 43.5Z" fill="#222160"/>
<path d="M73 43.7754C73 44.88 72.1046 45.7754 71 45.7754C69.8954 45.7754 69 44.88 69 43.7754C69 40.7378 66.5376 38.2754 63.5 38.2754C60.4624 38.2754 58 40.7378 58 43.7754C58 44.88 57.1046 45.7754 56 45.7754C54.8954 45.7754 54 44.88 54 43.7754C54 38.5287 58.2533 34.2754 63.5 34.2754C68.7467 34.2754 73 38.5287 73 43.7754Z" fill="#222160"/>
<path d="M42 59.5C42 55.3579 45.3579 52 49.5 52C53.6421 52 57 55.3579 57 59.5C57 63.6421 53.6421 67 49.5 67C45.3579 67 42 63.6421 42 59.5Z" fill="#222160"/>
<path d="M46 59.5C46 61.433 47.567 63 49.5 63C51.433 63 53 61.433 53 59.5C53 57.567 51.433 56 49.5 56L49.5 52C53.6421 52 57 55.3579 57 59.5C57 63.6421 53.6421 67 49.5 67C45.3579 67 42 63.6421 42 59.5C42 55.3579 45.3579 52 49.5 52L49.5 56C47.567 56 46 57.567 46 59.5Z" fill="#222160"/>
</svg>
