<svg width="100" height="100" viewBox="0 0 100 100" fill="none" xmlns="http://www.w3.org/2000/svg">
<path d="M45.7754 44.5C45.7754 45.6046 44.88 46.5 43.7754 46.5C42.6708 46.5 41.7754 45.6046 41.7754 44.5C41.7754 41.4624 39.313 39 36.2754 39C33.2378 39 30.7754 41.4624 30.7754 44.5C30.7754 45.6046 29.88 46.5 28.7754 46.5C27.6708 46.5 26.7754 45.6046 26.7754 44.5C26.7754 39.2533 31.0287 35 36.2754 35C41.5221 35 45.7754 39.2533 45.7754 44.5Z" fill="#222160"/>
<path d="M40.7754 55C40.7754 53.8954 41.6708 53 42.7754 53C43.88 53 44.7754 53.8954 44.7754 55C44.7754 58.0376 47.2378 60.5 50.2754 60.5C53.313 60.5 55.7754 58.0376 55.7754 55C55.7754 53.8954 56.6708 53 57.7754 53C58.88 53 59.7754 53.8954 59.7754 55C59.7754 60.2467 55.5221 64.5 50.2754 64.5C45.0287 64.5 40.7754 60.2467 40.7754 55Z" fill="#222160"/>
<path d="M72.7754 44.7754C72.7754 45.88 71.88 46.7754 70.7754 46.7754C69.6708 46.7754 68.7754 45.88 68.7754 44.7754C68.7754 41.7378 66.313 39.2754 63.2754 39.2754C60.2378 39.2754 57.7754 41.7378 57.7754 44.7754C57.7754 45.88 56.88 46.7754 55.7754 46.7754C54.6708 46.7754 53.7754 45.88 53.7754 44.7754C53.7754 39.5287 58.0287 35.2754 63.2754 35.2754C68.5221 35.2754 72.7754 39.5287 72.7754 44.7754Z" fill="#222160"/>
</svg>
