<svg width="42" height="11" viewBox="0 0 42 11" fill="none" xmlns="http://www.w3.org/2000/svg">
<mask id="path-1-inside-1_1505_6039" fill="white">
<ellipse cx="3.5" cy="3.5" rx="3.5" ry="3.5" transform="matrix(-1 -8.74228e-08 -8.74228e-08 1 7.25 0.5)"/>
</mask>
<ellipse cx="3.5" cy="3.5" rx="3.5" ry="3.5" transform="matrix(-1 -8.74228e-08 -8.74228e-08 1 7.25 0.5)" fill="#222160"/>
<path d="M4.25 4C4.25 3.72386 4.02614 3.5 3.75 3.5L3.75 11.5C-0.392137 11.5 -3.75 8.14213 -3.75 4L4.25 4ZM3.75 3.5C3.47386 3.5 3.25 3.72386 3.25 4L11.25 4C11.25 8.14214 7.89214 11.5 3.75 11.5L3.75 3.5ZM3.25 4C3.25 4.27614 3.47386 4.5 3.75 4.5L3.75 -3.5C7.89214 -3.5 11.25 -0.142135 11.25 4L3.25 4ZM3.75 4.5C4.02614 4.5 4.25 4.27614 4.25 4L-3.75 4C-3.75 -0.142136 -0.392135 -3.5 3.75 -3.5L3.75 4.5Z" fill="#222160" mask="url(#path-1-inside-1_1505_6039)"/>
<mask id="path-3-inside-2_1505_6039" fill="white">
<ellipse cx="3.5" cy="3.5" rx="3.5" ry="3.5" transform="matrix(-1 -8.74228e-08 -8.74228e-08 1 41.25 0.5)"/>
</mask>
<ellipse cx="3.5" cy="3.5" rx="3.5" ry="3.5" transform="matrix(-1 -8.74228e-08 -8.74228e-08 1 41.25 0.5)" fill="#222160"/>
<path d="M38.25 4C38.25 3.72386 38.0261 3.5 37.75 3.5L37.75 11.5C33.6079 11.5 30.25 8.14213 30.25 4L38.25 4ZM37.75 3.5C37.4739 3.5 37.25 3.72386 37.25 4L45.25 4C45.25 8.14214 41.8921 11.5 37.75 11.5L37.75 3.5ZM37.25 4C37.25 4.27614 37.4739 4.5 37.75 4.5L37.75 -3.5C41.8921 -3.5 45.25 -0.142135 45.25 4L37.25 4ZM37.75 4.5C38.0261 4.5 38.25 4.27614 38.25 4L30.25 4C30.25 -0.142136 33.6079 -3.5 37.75 -3.5L37.75 4.5Z" fill="#222160" mask="url(#path-3-inside-2_1505_6039)"/>
<line x1="17.25" y1="8.5" x2="24.25" y2="8.5" stroke="#222160" stroke-width="4" stroke-linecap="round"/>
</svg>
